<?xml version="1.0" encoding="UTF-8"?>
<svg xmlns="http://www.w3.org/2000/svg" width="1900" height="1110" viewBox="0 0 1900 1110" role="img" aria-label="MNO Architecture - Runtime Retrieval">
<rect width="100%" height="100%" fill="#ffffff"/>
<text x="52" y="54" font-family="Segoe UI, Inter, Arial, sans-serif" font-size="30" font-weight="800" fill="#1e293b">MNO Architecture - Runtime Retrieval</text>
<text x="52" y="86" font-family="Segoe UI, Inter, Arial, sans-serif" font-size="16" font-weight="500" fill="#64748b">The live request path from route selection through memory fusion, evidence packaging, and governed output.</text>
<rect x="45" y="120" width="280" height="730" rx="14" fill="#fffaf0" stroke="#d9a441" stroke-width="2"/>
<text x="65.0" y="154.0" font-family="Segoe UI, Inter, Arial, sans-serif" font-size="20" font-weight="800" fill="#5f3b05">Request</text>
<rect x="375" y="120" width="360" height="730" rx="14" fill="#eefaf7" stroke="#65a99d" stroke-width="2"/>
<text x="395.0" y="154.0" font-family="Segoe UI, Inter, Arial, sans-serif" font-size="20" font-weight="800" fill="#174a43">Retrieval Sources</text>
<rect x="800" y="120" width="300" height="730" rx="14" fill="#f1f6ff" stroke="#7b9bd6" stroke-width="2"/>
<text x="820.0" y="154.0" font-family="Segoe UI, Inter, Arial, sans-serif" font-size="20" font-weight="800" fill="#263967">Fusion And Ranking</text>
<rect x="1165" y="120" width="330" height="730" rx="14" fill="#f1f6ff" stroke="#7b9bd6" stroke-width="2"/>
<text x="1185.0" y="154.0" font-family="Segoe UI, Inter, Arial, sans-serif" font-size="20" font-weight="800" fill="#263967">Evidence And Decision</text>
<rect x="1560" y="120" width="300" height="730" rx="14" fill="#faf4ff" stroke="#a889cc" stroke-width="2"/>
<text x="1580.0" y="154.0" font-family="Segoe UI, Inter, Arial, sans-serif" font-size="20" font-weight="800" fill="#3f285e">Outcomes</text>
<polyline points="185.0,300.0 185.0,470.0" fill="none" stroke="#b97818" stroke-width="2.8" stroke-linecap="round" stroke-linejoin="round"/>
<polyline points="290.0,518.0 348.0,518.0 348.0,112.0 775.0,112.0 775.0,185.0" fill="none" stroke="#5f78c8" stroke-width="2.8" stroke-linecap="round" stroke-linejoin="round"/>
<polyline points="690.0,206.0 711.0,206.0 711.0,257.8 732.0,257.8" fill="none" stroke="#b97818" stroke-width="2.8" stroke-linecap="round" stroke-linejoin="round"/>
<polyline points="690.0,316.0 711.0,316.0 711.0,330.6 732.0,330.6" fill="none" stroke="#398f83" stroke-width="2.8" stroke-linecap="round" stroke-linejoin="round"/>
<polyline points="690.0,426.0 711.0,426.0 711.0,403.4 732.0,403.4" fill="none" stroke="#398f83" stroke-width="2.8" stroke-linecap="round" stroke-linejoin="round"/>
<polyline points="690.0,536.0 711.0,536.0 711.0,481.4 732.0,481.4" fill="none" stroke="#5f9d49" stroke-width="2.8" stroke-linecap="round" stroke-linejoin="round"/>
<polyline points="690.0,651.0 711.0,651.0 711.0,564.6 732.0,564.6" fill="none" stroke="#4f83bd" stroke-width="2.8" stroke-linecap="round" stroke-linejoin="round"/>
<polyline points="690.0,766.0 711.0,766.0 711.0,653.0 732.0,653.0" fill="none" stroke="#4f83bd" stroke-width="2.8" stroke-linecap="round" stroke-linejoin="round" stroke-dasharray="8 8"/>
<polyline points="818.0,268.2 826.5,268.2 826.5,279.0 835.0,279.0" fill="none" stroke="#64748b" stroke-width="2.8" stroke-linecap="round" stroke-linejoin="round"/>
<polyline points="950.0,328.0 950.0,425.0" fill="none" stroke="#5f78c8" stroke-width="2.8" stroke-linecap="round" stroke-linejoin="round"/>
<polyline points="950.0,523.0 950.0,620.0" fill="none" stroke="#5f9d49" stroke-width="2.8" stroke-linecap="round" stroke-linejoin="round"/>
<polyline points="1065.0,661.2 1130.0,661.2 1130.0,668.0 1130.0,318.0 1205.0,318.0 1205.0,320.6" fill="none" stroke="#5f78c8" stroke-width="2.8" stroke-linecap="round" stroke-linejoin="round"/>
<polyline points="1065.0,676.8 1135.0,676.8 1135.0,494.0 1205.0,494.0" fill="none" stroke="#4f83bd" stroke-width="2.8" stroke-linecap="round" stroke-linejoin="round" stroke-dasharray="8 8"/>
<polyline points="1455.0,299.0 1495.0,299.0 1495.0,610.0 1292.0,610.0 1292.5,640.0" fill="none" stroke="#7869c6" stroke-width="2.8" stroke-linecap="round" stroke-linejoin="round"/>
<polyline points="1330.0,543.0 1330.0,591.5 1367.5,591.5 1367.5,640.0" fill="none" stroke="#4f83bd" stroke-width="2.8" stroke-linecap="round" stroke-linejoin="round" stroke-dasharray="8 8"/>
<polyline points="1455.0,673.3 1525.0,673.0 1525.0,292.0 1600.0,292.2" fill="none" stroke="#7869c6" stroke-width="2.8" stroke-linecap="round" stroke-linejoin="round"/>
<polyline points="1455.0,689.0 1527.5,689.0 1527.5,478.0 1600.0,478.0" fill="none" stroke="#8b5fbf" stroke-width="2.8" stroke-linecap="round" stroke-linejoin="round"/>
<polyline points="1455.0,704.7 1527.5,704.7 1527.5,683.0 1600.0,683.0" fill="none" stroke="#bb5b54" stroke-width="2.8" stroke-linecap="round" stroke-linejoin="round"/>
<rect x="80" y="210" width="210" height="90" rx="10" fill="#fff4db" stroke="#b97818" stroke-width="2"/>
<g class="node-label"><text x="185.0" y="242.3" text-anchor="middle" font-family="Segoe UI, Inter, Arial, sans-serif" font-size="13" font-weight="500" fill="#1f2937">Incoming turn</text><text x="185.0" y="259.4" text-anchor="middle" font-family="Segoe UI, Inter, Arial, sans-serif" font-size="13" font-weight="500" fill="#1f2937">user request plus current</text><text x="185.0" y="276.6" text-anchor="middle" font-family="Segoe UI, Inter, Arial, sans-serif" font-size="13" font-weight="500" fill="#1f2937">context</text></g>
<rect x="80" y="470" width="210" height="96" rx="10" fill="#e8f0ff" stroke="#5f78c8" stroke-width="2"/>
<g class="node-label"><text x="185.0" y="513.5" text-anchor="middle" font-family="Segoe UI, Inter, Arial, sans-serif" font-size="14" font-weight="500" fill="#1f2937">Router and query shaping</text><text x="185.0" y="532.0" text-anchor="middle" font-family="Segoe UI, Inter, Arial, sans-serif" font-size="14" font-weight="500" fill="#1f2937">mode, scope, quote intent</text></g>
<rect x="732" y="185" width="86" height="520" rx="10" fill="#f8fafc" stroke="#64748b" stroke-width="2"/>
<g class="node-label"><text x="775.0" y="441.8" text-anchor="middle" font-family="Segoe UI, Inter, Arial, sans-serif" font-size="10" font-weight="700" fill="#1f2937">candidate</text><text x="775.0" y="455.0" text-anchor="middle" font-family="Segoe UI, Inter, Arial, sans-serif" font-size="10" font-weight="700" fill="#1f2937">bus</text></g>
<rect x="420" y="165" width="270" height="82" rx="10" fill="#fff4db" stroke="#b97818" stroke-width="2"/>
<g class="node-label"><text x="555.0" y="201.5" text-anchor="middle" font-family="Segoe UI, Inter, Arial, sans-serif" font-size="14" font-weight="500" fill="#1f2937">Immediate context</text><text x="555.0" y="220.0" text-anchor="middle" font-family="Segoe UI, Inter, Arial, sans-serif" font-size="14" font-weight="500" fill="#1f2937">current turn and request-local state</text></g>
<rect x="420" y="275" width="270" height="82" rx="10" fill="#e1f4f0" stroke="#398f83" stroke-width="2"/>
<g class="node-label"><text x="555.0" y="311.8" text-anchor="middle" font-family="Segoe UI, Inter, Arial, sans-serif" font-size="13" font-weight="500" fill="#1f2937">STM / session state</text><text x="555.0" y="329.0" text-anchor="middle" font-family="Segoe UI, Inter, Arial, sans-serif" font-size="13" font-weight="500" fill="#1f2937">short-term notes and rolling summary</text></g>
<rect x="420" y="385" width="270" height="82" rx="10" fill="#e1f4f0" stroke="#398f83" stroke-width="2"/>
<g class="node-label"><text x="555.0" y="422.5" text-anchor="middle" font-family="Segoe UI, Inter, Arial, sans-serif" font-size="11" font-weight="500" fill="#1f2937">Helper work state</text><text x="555.0" y="437.0" text-anchor="middle" font-family="Segoe UI, Inter, Arial, sans-serif" font-size="11" font-weight="500" fill="#1f2937">provisional memory + strict active-scope WSS</text></g>
<rect x="420" y="495" width="270" height="82" rx="10" fill="#e6f4df" stroke="#5f9d49" stroke-width="2"/>
<g class="node-label"><text x="555.0" y="531.5" text-anchor="middle" font-family="Segoe UI, Inter, Arial, sans-serif" font-size="14" font-weight="500" fill="#1f2937">Reviewed episodes</text><text x="555.0" y="550.0" text-anchor="middle" font-family="Segoe UI, Inter, Arial, sans-serif" font-size="14" font-weight="500" fill="#1f2937">trusted event memory with lineage</text></g>
<rect x="420" y="605" width="270" height="92" rx="10" fill="#e7f3ff" stroke="#4f83bd" stroke-width="2"/>
<g class="node-label"><text x="555.0" y="637.3" text-anchor="middle" font-family="Segoe UI, Inter, Arial, sans-serif" font-size="14" font-weight="500" fill="#1f2937">Atoms + bounded ANN</text><text x="555.0" y="655.8" text-anchor="middle" font-family="Segoe UI, Inter, Arial, sans-serif" font-size="14" font-weight="500" fill="#1f2937">canonical evidence and additive</text><text x="555.0" y="674.2" text-anchor="middle" font-family="Segoe UI, Inter, Arial, sans-serif" font-size="14" font-weight="500" fill="#1f2937">candidates</text></g>
<rect x="420" y="725" width="270" height="82" rx="10" fill="#e7f3ff" stroke="#4f83bd" stroke-width="2"/>
<g class="node-label"><text x="555.0" y="755.2" text-anchor="middle" font-family="Segoe UI, Inter, Arial, sans-serif" font-size="11" font-weight="500" fill="#1f2937">Raw-context sidecar</text><text x="555.0" y="769.7" text-anchor="middle" font-family="Segoe UI, Inter, Arial, sans-serif" font-size="11" font-weight="500" fill="#1f2937">exact wording and provenance only when</text><text x="555.0" y="784.3" text-anchor="middle" font-family="Segoe UI, Inter, Arial, sans-serif" font-size="11" font-weight="500" fill="#1f2937">asked</text></g>
<rect x="835" y="230" width="230" height="98" rx="10" fill="#e8f0ff" stroke="#5f78c8" stroke-width="2"/>
<g class="node-label"><text x="950.0" y="264.3" text-anchor="middle" font-family="Segoe UI, Inter, Arial, sans-serif" font-size="15" font-weight="500" fill="#1f2937">Hybrid retrieval</text><text x="950.0" y="284.1" text-anchor="middle" font-family="Segoe UI, Inter, Arial, sans-serif" font-size="15" font-weight="500" fill="#1f2937">lexical, BM25, semantic,</text><text x="950.0" y="303.9" text-anchor="middle" font-family="Segoe UI, Inter, Arial, sans-serif" font-size="15" font-weight="500" fill="#1f2937">sequence, graph</text></g>
<rect x="835" y="425" width="230" height="98" rx="10" fill="#e6f4df" stroke="#5f9d49" stroke-width="2"/>
<g class="node-label"><text x="950.0" y="459.3" text-anchor="middle" font-family="Segoe UI, Inter, Arial, sans-serif" font-size="15" font-weight="500" fill="#1f2937">Lineage-aware resolution</text><text x="950.0" y="479.1" text-anchor="middle" font-family="Segoe UI, Inter, Arial, sans-serif" font-size="15" font-weight="500" fill="#1f2937">prefer current reviewed</text><text x="950.0" y="498.9" text-anchor="middle" font-family="Segoe UI, Inter, Arial, sans-serif" font-size="15" font-weight="500" fill="#1f2937">truth</text></g>
<rect x="835" y="620" width="230" height="98" rx="10" fill="#e8f0ff" stroke="#5f78c8" stroke-width="2"/>
<g class="node-label"><text x="950.0" y="654.3" text-anchor="middle" font-family="Segoe UI, Inter, Arial, sans-serif" font-size="15" font-weight="500" fill="#1f2937">Guarded shortlist</text><text x="950.0" y="674.1" text-anchor="middle" font-family="Segoe UI, Inter, Arial, sans-serif" font-size="15" font-weight="500" fill="#1f2937">bounded, deduped,</text><text x="950.0" y="693.9" text-anchor="middle" font-family="Segoe UI, Inter, Arial, sans-serif" font-size="15" font-weight="500" fill="#1f2937">evidence-ranked</text></g>
<rect x="1205" y="250" width="250" height="98" rx="10" fill="#e7f3ff" stroke="#4f83bd" stroke-width="2"/>
<g class="node-label"><text x="1330.0" y="287.2" text-anchor="middle" font-family="Segoe UI, Inter, Arial, sans-serif" font-size="12" font-weight="500" fill="#1f2937">Context package</text><text x="1330.0" y="303.1" text-anchor="middle" font-family="Segoe UI, Inter, Arial, sans-serif" font-size="12" font-weight="500" fill="#1f2937">evidence plus scratchpad_ephemeral</text><text x="1330.0" y="318.9" text-anchor="middle" font-family="Segoe UI, Inter, Arial, sans-serif" font-size="12" font-weight="500" fill="#1f2937">WSS when strict active scope is present</text></g>
<rect x="1205" y="445" width="250" height="98" rx="10" fill="#e7f3ff" stroke="#4f83bd" stroke-width="2"/>
<g class="node-label"><text x="1330.0" y="489.2" text-anchor="middle" font-family="Segoe UI, Inter, Arial, sans-serif" font-size="15" font-weight="500" fill="#1f2937">Quote / provenance expansion</text><text x="1330.0" y="509.0" text-anchor="middle" font-family="Segoe UI, Inter, Arial, sans-serif" font-size="15" font-weight="500" fill="#1f2937">only for exact wording asks</text></g>
<rect x="1205" y="640" width="250" height="98" rx="10" fill="#e9e6ff" stroke="#7869c6" stroke-width="2"/>
<g class="node-label"><text x="1330.0" y="683.9" text-anchor="middle" font-family="Segoe UI, Inter, Arial, sans-serif" font-size="16" font-weight="500" fill="#1f2937">Verifier and answer path</text><text x="1330.0" y="705.0" text-anchor="middle" font-family="Segoe UI, Inter, Arial, sans-serif" font-size="16" font-weight="500" fill="#1f2937">PASS, ABSTAIN, or CLARIFY</text></g>
<rect x="1600" y="225" width="220" height="96" rx="10" fill="#f3e8ff" stroke="#8b5fbf" stroke-width="2"/>
<g class="node-label"><text x="1710.0" y="258.3" text-anchor="middle" font-family="Segoe UI, Inter, Arial, sans-serif" font-size="15" font-weight="500" fill="#1f2937">Final response</text><text x="1710.0" y="278.1" text-anchor="middle" font-family="Segoe UI, Inter, Arial, sans-serif" font-size="15" font-weight="500" fill="#1f2937">answer text plus evidence</text><text x="1710.0" y="297.9" text-anchor="middle" font-family="Segoe UI, Inter, Arial, sans-serif" font-size="15" font-weight="500" fill="#1f2937">metadata</text></g>
<rect x="1600" y="430" width="220" height="96" rx="10" fill="#f3e8ff" stroke="#8b5fbf" stroke-width="2"/>
<g class="node-label"><text x="1710.0" y="463.3" text-anchor="middle" font-family="Segoe UI, Inter, Arial, sans-serif" font-size="15" font-weight="500" fill="#1f2937">context.why</text><text x="1710.0" y="483.1" text-anchor="middle" font-family="Segoe UI, Inter, Arial, sans-serif" font-size="15" font-weight="500" fill="#1f2937">IDs, citations, and reason</text><text x="1710.0" y="502.9" text-anchor="middle" font-family="Segoe UI, Inter, Arial, sans-serif" font-size="15" font-weight="500" fill="#1f2937">trail</text></g>
<rect x="1600" y="635" width="220" height="96" rx="10" fill="#ffe6e3" stroke="#bb5b54" stroke-width="2"/>
<g class="node-label"><text x="1710.0" y="677.9" text-anchor="middle" font-family="Segoe UI, Inter, Arial, sans-serif" font-size="16" font-weight="500" fill="#1f2937">Proposal-only writeback</text><text x="1710.0" y="699.0" text-anchor="middle" font-family="Segoe UI, Inter, Arial, sans-serif" font-size="16" font-weight="500" fill="#1f2937">no silent truth mutation</text></g>
<rect x="635" y="885" width="750" height="78" rx="10" fill="#fffbe8" stroke="#d6a21f" stroke-width="2"/>
<g class="node-label"><text x="1010.0" y="919.8" text-anchor="middle" font-family="Segoe UI, Inter, Arial, sans-serif" font-size="13" font-weight="700" fill="#1f2937">Decision rule</text><text x="1010.0" y="937.0" text-anchor="middle" font-family="Segoe UI, Inter, Arial, sans-serif" font-size="13" font-weight="700" fill="#1f2937">Retrieval success is not authority. WSS can help resume work under strict active scope, but cannot prove memory.</text></g>
<polygon points="185.0,470.0 179.7,459.2 190.3,459.2" fill="#b97818"/>
<polygon points="775.0,185.0 769.7,174.2 780.3,174.2" fill="#5f78c8"/>
<polygon points="732.0,257.8 721.2,263.1 721.2,252.5" fill="#b97818"/>
<polygon points="732.0,330.6 721.2,335.9 721.2,325.3" fill="#398f83"/>
<polygon points="732.0,403.4 721.2,408.7 721.2,398.1" fill="#398f83"/>
<polygon points="732.0,481.4 721.2,486.7 721.2,476.1" fill="#5f9d49"/>
<polygon points="732.0,564.6 721.2,569.9 721.2,559.3" fill="#4f83bd"/>
<polygon points="732.0,653.0 721.2,658.3 721.2,647.7" fill="#4f83bd"/>
<polygon points="835.0,279.0 824.2,284.3 824.2,273.7" fill="#64748b"/>
<polygon points="950.0,425.0 944.7,414.2 955.3,414.2" fill="#5f78c8"/>
<polygon points="950.0,620.0 944.7,609.2 955.3,609.2" fill="#5f9d49"/>
<polygon points="1205.0,320.6 1199.7,309.8 1210.3,309.8" fill="#5f78c8"/>
<polygon points="1205.0,494.0 1194.2,499.3 1194.2,488.7" fill="#4f83bd"/>
<polygon points="1292.5,640.0 1287.1,629.3 1297.6,629.1" fill="#7869c6"/>
<polygon points="1367.5,640.0 1362.2,629.2 1372.8,629.2" fill="#4f83bd"/>
<polygon points="1600.0,292.2 1589.2,297.4 1589.2,286.9" fill="#7869c6"/>
<polygon points="1600.0,478.0 1589.2,483.3 1589.2,472.7" fill="#8b5fbf"/>
<polygon points="1600.0,683.0 1589.2,688.3 1589.2,677.7" fill="#bb5b54"/>
<rect x="52.0" y="1033.0" width="18" height="18" rx="4" fill="#fff4db" stroke="#b97818" stroke-width="1.5"/>
<text x="80.0" y="1048.0" font-family="Segoe UI, Inter, Arial, sans-serif" font-size="14" font-weight="700" fill="#5f3b05">source</text>
<rect x="212.0" y="1033.0" width="18" height="18" rx="4" fill="#e7f3ff" stroke="#4f83bd" stroke-width="1.5"/>
<text x="240.0" y="1048.0" font-family="Segoe UI, Inter, Arial, sans-serif" font-size="14" font-weight="700" fill="#213f5f">evidence</text>
<rect x="372.0" y="1033.0" width="18" height="18" rx="4" fill="#e6f4df" stroke="#5f9d49" stroke-width="1.5"/>
<text x="400.0" y="1048.0" font-family="Segoe UI, Inter, Arial, sans-serif" font-size="14" font-weight="700" fill="#244c1f">reviewed truth</text>
<rect x="536.0" y="1033.0" width="18" height="18" rx="4" fill="#e8f0ff" stroke="#5f78c8" stroke-width="1.5"/>
<text x="564.0" y="1048.0" font-family="Segoe UI, Inter, Arial, sans-serif" font-size="14" font-weight="700" fill="#263967">runtime</text>
<rect x="696.0" y="1033.0" width="18" height="18" rx="4" fill="#f3e8ff" stroke="#8b5fbf" stroke-width="1.5"/>
<text x="724.0" y="1048.0" font-family="Segoe UI, Inter, Arial, sans-serif" font-size="14" font-weight="700" fill="#3f285e">integration</text>
<rect x="856.0" y="1033.0" width="18" height="18" rx="4" fill="#ffe6e3" stroke="#bb5b54" stroke-width="1.5"/>
<text x="884.0" y="1048.0" font-family="Segoe UI, Inter, Arial, sans-serif" font-size="14" font-weight="700" fill="#612823">governance</text>
</svg>
