<?xml version="1.0" encoding="UTF-8"?>
<svg xmlns="http://www.w3.org/2000/svg" width="1600" height="1090" viewBox="0 0 1600 1090" role="img" aria-label="MNO Architecture - Memory Trust Boundaries">
<rect width="100%" height="100%" fill="#ffffff"/>
<text x="52" y="54" font-family="Segoe UI, Inter, Arial, sans-serif" font-size="30" font-weight="800" fill="#1e293b">MNO Architecture - Memory Trust Boundaries</text>
<text x="52" y="86" font-family="Segoe UI, Inter, Arial, sans-serif" font-size="16" font-weight="500" fill="#64748b">Which memory layers exist, what each layer is allowed to do, and how runtime reads them without collapsing trust levels.</text>
<rect x="55" y="135" width="330" height="165" rx="14" fill="#fffaf0" stroke="#d9a441" stroke-width="2"/>
<text x="75.0" y="169.0" font-family="Segoe UI, Inter, Arial, sans-serif" font-size="20" font-weight="800" fill="#5f3b05">Request-Local</text>
<rect x="55" y="340" width="330" height="250" rx="14" fill="#eefaf7" stroke="#65a99d" stroke-width="2"/>
<text x="75.0" y="374.0" font-family="Segoe UI, Inter, Arial, sans-serif" font-size="20" font-weight="800" fill="#174a43">Helper Memory</text>
<rect x="55" y="630" width="330" height="165" rx="14" fill="#fff3eb" stroke="#d18a61" stroke-width="2"/>
<text x="75.0" y="664.0" font-family="Segoe UI, Inter, Arial, sans-serif" font-size="20" font-weight="800" fill="#5b2b16">Canonical Evidence</text>
<rect x="465" y="135" width="410" height="300" rx="14" fill="#f4fbef" stroke="#82b366" stroke-width="2"/>
<text x="485.0" y="169.0" font-family="Segoe UI, Inter, Arial, sans-serif" font-size="20" font-weight="800" fill="#244c1f">Reviewed Truth</text>
<rect x="465" y="485" width="410" height="310" rx="14" fill="#fff1ef" stroke="#c8756d" stroke-width="2"/>
<text x="485.0" y="519.0" font-family="Segoe UI, Inter, Arial, sans-serif" font-size="20" font-weight="800" fill="#612823">Governance</text>
<rect x="995" y="135" width="520" height="660" rx="14" fill="#f1f6ff" stroke="#7b9bd6" stroke-width="2"/>
<text x="1015.0" y="169.0" font-family="Segoe UI, Inter, Arial, sans-serif" font-size="20" font-weight="800" fill="#263967">Runtime Read Path</text>
<line x1="430.0" y1="150.0" x2="430.0" y2="790.0" stroke="#bb5b54" stroke-width="3" stroke-dasharray="10 8"/>
<rect x="435.0" y="764.0" width="158" height="24" rx="6" fill="#ffffff" fill-opacity="0.92"/>
<text x="440.0" y="782.0" font-family="Segoe UI, Inter, Arial, sans-serif" font-size="14" font-weight="800" fill="#bb5b54">authority boundary</text>
<line x1="970.0" y1="150.0" x2="970.0" y2="790.0" stroke="#5f78c8" stroke-width="3" stroke-dasharray="10 8"/>
<rect x="975.0" y="764.0" width="158" height="24" rx="6" fill="#ffffff" fill-opacity="0.92"/>
<text x="980.0" y="782.0" font-family="Segoe UI, Inter, Arial, sans-serif" font-size="14" font-weight="800" fill="#5f78c8">runtime read boundary</text>
<polyline points="345.0,222.0 410.0,222.0 410.0,104.0 910.0,104.0 900.0,104.0 900.0,269.0" fill="none" stroke="#b97818" stroke-width="2.8" stroke-linecap="round" stroke-linejoin="round"/>
<polyline points="345.0,424.0 420.0,424.0 420.0,118.0 910.0,118.0 900.0,118.0 900.0,352.3" fill="none" stroke="#398f83" stroke-width="2.8" stroke-linecap="round" stroke-linejoin="round"/>
<polyline points="345.0,524.0 430.0,524.0 430.0,132.0 910.0,132.0 900.0,132.0 900.0,430.7" fill="none" stroke="#398f83" stroke-width="2.8" stroke-linecap="round" stroke-linejoin="round"/>
<polyline points="345.0,714.0 430.0,714.0 430.0,820.0 910.0,820.0 900.0,820.0 900.0,587.5" fill="none" stroke="#4f83bd" stroke-width="2.8" stroke-linecap="round" stroke-linejoin="round"/>
<polyline points="805.0,219.4 852.5,219.4 852.5,308.2 900.0,308.2" fill="none" stroke="#5f9d49" stroke-width="2.8" stroke-linecap="round" stroke-linejoin="round"/>
<polyline points="805.0,357.6 852.5,357.6 852.5,386.6 900.0,386.6" fill="none" stroke="#5f9d49" stroke-width="2.8" stroke-linecap="round" stroke-linejoin="round"/>
<polyline points="805.0,697.8 852.5,697.8 852.5,670.8 900.0,670.8" fill="none" stroke="#4f83bd" stroke-width="2.8" stroke-linecap="round" stroke-linejoin="round" stroke-dasharray="8 8"/>
<polyline points="978.0,298.4 1011.5,298.4 1011.5,246.4 1045.0,246.4" fill="none" stroke="#64748b" stroke-width="2.8" stroke-linecap="round" stroke-linejoin="round"/>
<polyline points="1245.0,297.0 1245.0,370.0" fill="none" stroke="#5f78c8" stroke-width="2.8" stroke-linecap="round" stroke-linejoin="round"/>
<polyline points="1245.0,462.0 1245.0,535.0" fill="none" stroke="#7869c6" stroke-width="2.8" stroke-linecap="round" stroke-linejoin="round"/>
<polyline points="1245.0,627.0 1245.0,680.0" fill="none" stroke="#bb5b54" stroke-width="2.8" stroke-linecap="round" stroke-linejoin="round"/>
<polyline points="1105.0,758.0 1105.0,820.0 850.0,820.0 850.0,591.0 805.0,590.8" fill="none" stroke="#bb5b54" stroke-width="2.8" stroke-linecap="round" stroke-linejoin="round"/>
<polyline points="505.0,568.7 435.0,569.0 435.0,300.0 655.0,300.0 655.0,267.0" fill="none" stroke="#bb5b54" stroke-width="2.8" stroke-linecap="round" stroke-linejoin="round" stroke-dasharray="8 8"/>
<rect x="95" y="185" width="250" height="74" rx="10" fill="#fff4db" stroke="#b97818" stroke-width="2"/>
<g class="node-label"><text x="220.0" y="217.8" text-anchor="middle" font-family="Segoe UI, Inter, Arial, sans-serif" font-size="13" font-weight="500" fill="#1f2937">Immediate context</text><text x="220.0" y="235.0" text-anchor="middle" font-family="Segoe UI, Inter, Arial, sans-serif" font-size="13" font-weight="500" fill="#1f2937">current turn and request-local state</text></g>
<rect x="95" y="385" width="250" height="78" rx="10" fill="#e1f4f0" stroke="#398f83" stroke-width="2"/>
<g class="node-label"><text x="220.0" y="420.2" text-anchor="middle" font-family="Segoe UI, Inter, Arial, sans-serif" font-size="12" font-weight="500" fill="#1f2937">STM / session state</text><text x="220.0" y="436.0" text-anchor="middle" font-family="Segoe UI, Inter, Arial, sans-serif" font-size="12" font-weight="500" fill="#1f2937">short-term notes and rolling summary</text></g>
<rect x="95" y="485" width="250" height="78" rx="10" fill="#e1f4f0" stroke="#398f83" stroke-width="2"/>
<g class="node-label"><text x="220.0" y="520.8" text-anchor="middle" font-family="Segoe UI, Inter, Arial, sans-serif" font-size="10" font-weight="500" fill="#1f2937">Helper work state</text><text x="220.0" y="534.0" text-anchor="middle" font-family="Segoe UI, Inter, Arial, sans-serif" font-size="10" font-weight="500" fill="#1f2937">provisional memory + strict active-scope WSS</text></g>
<rect x="95" y="675" width="250" height="78" rx="10" fill="#e7f3ff" stroke="#4f83bd" stroke-width="2"/>
<g class="node-label"><text x="220.0" y="710.2" text-anchor="middle" font-family="Segoe UI, Inter, Arial, sans-serif" font-size="12" font-weight="500" fill="#1f2937">Canonical atom store</text><text x="220.0" y="726.0" text-anchor="middle" font-family="Segoe UI, Inter, Arial, sans-serif" font-size="12" font-weight="500" fill="#1f2937">small evidence units with provenance</text></g>
<rect x="505" y="185" width="300" height="82" rx="10" fill="#e6f4df" stroke="#5f9d49" stroke-width="2"/>
<g class="node-label"><text x="655.0" y="220.6" text-anchor="middle" font-family="Segoe UI, Inter, Arial, sans-serif" font-size="17" font-weight="500" fill="#1f2937">Reviewed episode cards</text><text x="655.0" y="243.0" text-anchor="middle" font-family="Segoe UI, Inter, Arial, sans-serif" font-size="17" font-weight="500" fill="#1f2937">trusted runtime event memory</text></g>
<rect x="505" y="310" width="300" height="82" rx="10" fill="#e6f4df" stroke="#5f9d49" stroke-width="2"/>
<g class="node-label"><text x="655.0" y="346.2" text-anchor="middle" font-family="Segoe UI, Inter, Arial, sans-serif" font-size="15" font-weight="500" fill="#1f2937">Truth-lineage metadata</text><text x="655.0" y="366.0" text-anchor="middle" font-family="Segoe UI, Inter, Arial, sans-serif" font-size="15" font-weight="500" fill="#1f2937">current vs superseded reviewed truth</text></g>
<rect x="505" y="540" width="300" height="82" rx="10" fill="#ffe6e3" stroke="#bb5b54" stroke-width="2"/>
<g class="node-label"><text x="655.0" y="575.9" text-anchor="middle" font-family="Segoe UI, Inter, Arial, sans-serif" font-size="16" font-weight="500" fill="#1f2937">Mutation review queue</text><text x="655.0" y="597.0" text-anchor="middle" font-family="Segoe UI, Inter, Arial, sans-serif" font-size="16" font-weight="500" fill="#1f2937">proposals wait for operator resolve</text></g>
<rect x="505" y="665" width="300" height="82" rx="10" fill="#e7f3ff" stroke="#4f83bd" stroke-width="2"/>
<g class="node-label"><text x="655.0" y="700.6" text-anchor="middle" font-family="Segoe UI, Inter, Arial, sans-serif" font-size="17" font-weight="500" fill="#1f2937">Raw-context receipts</text><text x="655.0" y="723.0" text-anchor="middle" font-family="Segoe UI, Inter, Arial, sans-serif" font-size="17" font-weight="500" fill="#1f2937">read-only exact wording support</text></g>
<rect x="900" y="220" width="78" height="490" rx="10" fill="#f8fafc" stroke="#64748b" stroke-width="2"/>
<g class="node-label"><text x="939.0" y="453.2" text-anchor="middle" font-family="Segoe UI, Inter, Arial, sans-serif" font-size="12" font-weight="700" fill="#1f2937">layered</text><text x="939.0" y="469.1" text-anchor="middle" font-family="Segoe UI, Inter, Arial, sans-serif" font-size="12" font-weight="700" fill="#1f2937">read</text><text x="939.0" y="484.9" text-anchor="middle" font-family="Segoe UI, Inter, Arial, sans-serif" font-size="12" font-weight="700" fill="#1f2937">bus</text></g>
<rect x="1045" y="205" width="400" height="92" rx="10" fill="#e8f0ff" stroke="#5f78c8" stroke-width="2"/>
<g class="node-label"><text x="1245.0" y="245.2" text-anchor="middle" font-family="Segoe UI, Inter, Arial, sans-serif" font-size="18" font-weight="500" fill="#1f2937">Rank and resolve</text><text x="1245.0" y="269.0" text-anchor="middle" font-family="Segoe UI, Inter, Arial, sans-serif" font-size="18" font-weight="500" fill="#1f2937">reviewed truth outranks helper memory</text></g>
<rect x="1045" y="370" width="400" height="92" rx="10" fill="#e7f3ff" stroke="#4f83bd" stroke-width="2"/>
<g class="node-label"><text x="1245.0" y="402.3" text-anchor="middle" font-family="Segoe UI, Inter, Arial, sans-serif" font-size="14" font-weight="500" fill="#1f2937">Bounded context package</text><text x="1245.0" y="420.8" text-anchor="middle" font-family="Segoe UI, Inter, Arial, sans-serif" font-size="14" font-weight="500" fill="#1f2937">citations, IDs, source scope, scratchpad_ephemeral WSS</text><text x="1245.0" y="439.2" text-anchor="middle" font-family="Segoe UI, Inter, Arial, sans-serif" font-size="14" font-weight="500" fill="#1f2937">by strict active scope</text></g>
<rect x="1045" y="535" width="400" height="92" rx="10" fill="#e9e6ff" stroke="#7869c6" stroke-width="2"/>
<g class="node-label"><text x="1245.0" y="575.2" text-anchor="middle" font-family="Segoe UI, Inter, Arial, sans-serif" font-size="18" font-weight="500" fill="#1f2937">Verifier</text><text x="1245.0" y="599.0" text-anchor="middle" font-family="Segoe UI, Inter, Arial, sans-serif" font-size="18" font-weight="500" fill="#1f2937">passes, abstains, or asks to clarify</text></g>
<rect x="1045" y="680" width="400" height="78" rx="10" fill="#ffe6e3" stroke="#bb5b54" stroke-width="2"/>
<g class="node-label"><text x="1245.0" y="714.2" text-anchor="middle" font-family="Segoe UI, Inter, Arial, sans-serif" font-size="15" font-weight="500" fill="#1f2937">Proposal output path</text><text x="1245.0" y="734.0" text-anchor="middle" font-family="Segoe UI, Inter, Arial, sans-serif" font-size="15" font-weight="500" fill="#1f2937">new memory cannot enter truth silently</text></g>
<rect x="410" y="845" width="905" height="78" rx="10" fill="#fffbe8" stroke="#d6a21f" stroke-width="2"/>
<g class="node-label"><text x="862.5" y="879.5" text-anchor="middle" font-family="Segoe UI, Inter, Arial, sans-serif" font-size="14" font-weight="700" fill="#1f2937">Trust ordering</text><text x="862.5" y="898.0" text-anchor="middle" font-family="Segoe UI, Inter, Arial, sans-serif" font-size="14" font-weight="700" fill="#1f2937">reviewed truth carries authority; raw receipts support evidence; WSS scratchpad_ephemeral supports work continuity, not proof.</text></g>
<polygon points="900.0,269.0 894.7,258.2 905.3,258.2" fill="#b97818"/>
<polygon points="900.0,352.3 894.7,341.5 905.3,341.5" fill="#398f83"/>
<polygon points="900.0,430.7 894.7,419.9 905.3,419.9" fill="#398f83"/>
<polygon points="900.0,587.5 905.3,598.3 894.7,598.3" fill="#4f83bd"/>
<polygon points="900.0,308.2 889.2,313.5 889.2,302.9" fill="#5f9d49"/>
<polygon points="900.0,386.6 889.2,391.9 889.2,381.3" fill="#5f9d49"/>
<polygon points="900.0,670.8 889.2,676.1 889.2,665.5" fill="#4f83bd"/>
<polygon points="1045.0,246.4 1034.2,251.7 1034.2,241.1" fill="#64748b"/>
<polygon points="1245.0,370.0 1239.7,359.2 1250.3,359.2" fill="#5f78c8"/>
<polygon points="1245.0,535.0 1239.7,524.2 1250.3,524.2" fill="#7869c6"/>
<polygon points="1245.0,680.0 1239.7,669.2 1250.3,669.2" fill="#bb5b54"/>
<polygon points="805.0,590.8 815.8,585.6 815.8,596.1" fill="#bb5b54"/>
<polygon points="655.0,267.0 660.3,277.8 649.7,277.8" fill="#bb5b54"/>
<rect x="52.0" y="1013.0" width="18" height="18" rx="4" fill="#fff4db" stroke="#b97818" stroke-width="1.5"/>
<text x="80.0" y="1028.0" font-family="Segoe UI, Inter, Arial, sans-serif" font-size="14" font-weight="700" fill="#5f3b05">source</text>
<rect x="212.0" y="1013.0" width="18" height="18" rx="4" fill="#e7f3ff" stroke="#4f83bd" stroke-width="1.5"/>
<text x="240.0" y="1028.0" font-family="Segoe UI, Inter, Arial, sans-serif" font-size="14" font-weight="700" fill="#213f5f">evidence</text>
<rect x="372.0" y="1013.0" width="18" height="18" rx="4" fill="#e6f4df" stroke="#5f9d49" stroke-width="1.5"/>
<text x="400.0" y="1028.0" font-family="Segoe UI, Inter, Arial, sans-serif" font-size="14" font-weight="700" fill="#244c1f">reviewed truth</text>
<rect x="536.0" y="1013.0" width="18" height="18" rx="4" fill="#e8f0ff" stroke="#5f78c8" stroke-width="1.5"/>
<text x="564.0" y="1028.0" font-family="Segoe UI, Inter, Arial, sans-serif" font-size="14" font-weight="700" fill="#263967">runtime</text>
<rect x="696.0" y="1013.0" width="18" height="18" rx="4" fill="#f3e8ff" stroke="#8b5fbf" stroke-width="1.5"/>
<text x="724.0" y="1028.0" font-family="Segoe UI, Inter, Arial, sans-serif" font-size="14" font-weight="700" fill="#3f285e">integration</text>
<rect x="856.0" y="1013.0" width="18" height="18" rx="4" fill="#ffe6e3" stroke="#bb5b54" stroke-width="1.5"/>
<text x="884.0" y="1028.0" font-family="Segoe UI, Inter, Arial, sans-serif" font-size="14" font-weight="700" fill="#612823">governance</text>
</svg>
