<?xml version="1.0" encoding="UTF-8"?>
<svg xmlns="http://www.w3.org/2000/svg" width="1800" height="1100" viewBox="0 0 1800 1100" role="img" aria-label="MNO Architecture - System Context">
<rect width="100%" height="100%" fill="#ffffff"/>
<text x="52" y="54" font-family="Segoe UI, Inter, Arial, sans-serif" font-size="30" font-weight="800" fill="#1e293b">MNO Architecture - System Context</text>
<text x="52" y="86" font-family="Segoe UI, Inter, Arial, sans-serif" font-size="16" font-weight="500" fill="#64748b">How local sources, reviewed memory, runtime decisions, and integration surfaces fit together.</text>
<rect x="48" y="110" width="320" height="690" rx="14" fill="#fffaf0" stroke="#d9a441" stroke-width="2"/>
<text x="68.0" y="144.0" font-family="Segoe UI, Inter, Arial, sans-serif" font-size="20" font-weight="800" fill="#5f3b05">Operator And Sources</text>
<rect x="425" y="110" width="355" height="690" rx="14" fill="#f4fbef" stroke="#82b366" stroke-width="2"/>
<text x="445.0" y="144.0" font-family="Segoe UI, Inter, Arial, sans-serif" font-size="20" font-weight="800" fill="#244c1f">Build And Review</text>
<rect x="880" y="110" width="355" height="690" rx="14" fill="#f1f6ff" stroke="#7b9bd6" stroke-width="2"/>
<text x="900.0" y="144.0" font-family="Segoe UI, Inter, Arial, sans-serif" font-size="20" font-weight="800" fill="#263967">Runtime Core</text>
<rect x="1390" y="110" width="360" height="690" rx="14" fill="#faf4ff" stroke="#a889cc" stroke-width="2"/>
<text x="1410.0" y="144.0" font-family="Segoe UI, Inter, Arial, sans-serif" font-size="20" font-weight="800" fill="#3f285e">Integration Surfaces</text>
<line x1="398.0" y1="130.0" x2="398.0" y2="770.0" stroke="#bb5b54" stroke-width="3" stroke-dasharray="10 8"/>
<rect x="403.0" y="744.0" width="158" height="24" rx="6" fill="#ffffff" fill-opacity="0.92"/>
<text x="408.0" y="762.0" font-family="Segoe UI, Inter, Arial, sans-serif" font-size="14" font-weight="800" fill="#bb5b54">truth gate</text>
<line x1="1372.0" y1="130.0" x2="1372.0" y2="770.0" stroke="#8b5fbf" stroke-width="3" stroke-dasharray="10 8"/>
<rect x="1377.0" y="744.0" width="158" height="24" rx="6" fill="#ffffff" fill-opacity="0.92"/>
<text x="1382.0" y="762.0" font-family="Segoe UI, Inter, Arial, sans-serif" font-size="14" font-weight="800" fill="#8b5fbf">public contract</text>
<polyline points="335.0,211.0 400.0,211.0 400.0,197.2 465.0,197.2" fill="none" stroke="#b97818" stroke-width="2.8" stroke-linecap="round" stroke-linejoin="round"/>
<polyline points="335.0,392.2 385.0,392.0 385.0,235.0 465.0,234.0" fill="none" stroke="#b97818" stroke-width="2.8" stroke-linecap="round" stroke-linejoin="round"/>
<polyline points="600.0,257.0 600.0,315.0" fill="none" stroke="#b8693d" stroke-width="2.8" stroke-linecap="round" stroke-linejoin="round"/>
<polyline points="600.0,407.0 600.0,465.0" fill="none" stroke="#4f83bd" stroke-width="2.8" stroke-linecap="round" stroke-linejoin="round"/>
<polyline points="335.0,618.1 385.0,618.0 385.0,532.0 465.0,531.2" fill="none" stroke="#bb5b54" stroke-width="2.8" stroke-linecap="round" stroke-linejoin="round"/>
<polyline points="600.0,557.0 600.0,615.0" fill="none" stroke="#5f9d49" stroke-width="2.8" stroke-linecap="round" stroke-linejoin="round"/>
<polyline points="735.0,361.0 767.5,361.0 767.5,402.6 800.0,402.6" fill="none" stroke="#4f83bd" stroke-width="2.8" stroke-linecap="round" stroke-linejoin="round"/>
<polyline points="735.0,661.0 767.5,661.0 767.5,587.4 800.0,587.4" fill="none" stroke="#5f9d49" stroke-width="2.8" stroke-linecap="round" stroke-linejoin="round"/>
<polyline points="868.0,481.8 899.0,481.8 899.0,400.0 930.0,400.0" fill="none" stroke="#64748b" stroke-width="2.8" stroke-linecap="round" stroke-linejoin="round"/>
<polyline points="1430.0,208.0 1399.0,208.0 1399.0,285.6 1368.0,285.6" fill="none" stroke="#8b5fbf" stroke-width="2.8" stroke-linecap="round" stroke-linejoin="round"/>
<polyline points="1430.0,358.0 1399.0,358.0 1399.0,404.5 1368.0,404.5" fill="none" stroke="#8b5fbf" stroke-width="2.8" stroke-linecap="round" stroke-linejoin="round"/>
<polyline points="1430.0,513.0 1399.0,513.0 1399.0,515.2 1368.0,515.2" fill="none" stroke="#8b5fbf" stroke-width="2.8" stroke-linecap="round" stroke-linejoin="round"/>
<polyline points="1300.0,310.2 1242.5,310.2 1242.5,229.8 1185.0,229.8" fill="none" stroke="#64748b" stroke-width="2.8" stroke-linecap="round" stroke-linejoin="round"/>
<polyline points="1057.5,262.0 1057.5,345.0" fill="none" stroke="#5f78c8" stroke-width="2.8" stroke-linecap="round" stroke-linejoin="round"/>
<polyline points="1057.5,455.0 1057.5,520.0" fill="none" stroke="#5f78c8" stroke-width="2.8" stroke-linecap="round" stroke-linejoin="round"/>
<polyline points="1057.5,612.0 1057.5,655.0" fill="none" stroke="#7869c6" stroke-width="2.8" stroke-linecap="round" stroke-linejoin="round"/>
<polyline points="1185.0,701.0 1307.5,701.0 1307.5,685.0 1430.0,685.0" fill="none" stroke="#bb5b54" stroke-width="2.8" stroke-linecap="round" stroke-linejoin="round"/>
<rect x="80" y="165" width="255" height="92" rx="10" fill="#fff4db" stroke="#b97818" stroke-width="2"/>
<g class="node-label"><text x="207.5" y="206.5" text-anchor="middle" font-family="Segoe UI, Inter, Arial, sans-serif" font-size="14" font-weight="500" fill="#1f2937">Raw files, folders, exports</text><text x="207.5" y="225.0" text-anchor="middle" font-family="Segoe UI, Inter, Arial, sans-serif" font-size="14" font-weight="500" fill="#1f2937">plus optional existing atom store</text></g>
<rect x="80" y="360" width="255" height="92" rx="10" fill="#fff4db" stroke="#b97818" stroke-width="2"/>
<g class="node-label"><text x="207.5" y="400.9" text-anchor="middle" font-family="Segoe UI, Inter, Arial, sans-serif" font-size="16" font-weight="500" fill="#1f2937">Guided setup workspace</text><text x="207.5" y="422.0" text-anchor="middle" font-family="Segoe UI, Inter, Arial, sans-serif" font-size="16" font-weight="500" fill="#1f2937">picker-first staging and launch</text></g>
<rect x="80" y="585" width="255" height="92" rx="10" fill="#ffe6e3" stroke="#bb5b54" stroke-width="2"/>
<g class="node-label"><text x="207.5" y="625.6" text-anchor="middle" font-family="Segoe UI, Inter, Arial, sans-serif" font-size="17" font-weight="500" fill="#1f2937">Human reviewer / operator</text><text x="207.5" y="648.0" text-anchor="middle" font-family="Segoe UI, Inter, Arial, sans-serif" font-size="17" font-weight="500" fill="#1f2937">approves memory changes</text></g>
<rect x="465" y="165" width="270" height="92" rx="10" fill="#fde8d6" stroke="#b8693d" stroke-width="2"/>
<g class="node-label"><text x="600.0" y="206.2" text-anchor="middle" font-family="Segoe UI, Inter, Arial, sans-serif" font-size="15" font-weight="500" fill="#1f2937">Import and normalization</text><text x="600.0" y="226.0" text-anchor="middle" font-family="Segoe UI, Inter, Arial, sans-serif" font-size="15" font-weight="500" fill="#1f2937">sanitized turns, roles, timestamps</text></g>
<rect x="465" y="315" width="270" height="92" rx="10" fill="#e7f3ff" stroke="#4f83bd" stroke-width="2"/>
<g class="node-label"><text x="600.0" y="355.2" text-anchor="middle" font-family="Segoe UI, Inter, Arial, sans-serif" font-size="18" font-weight="500" fill="#1f2937">Atom store</text><text x="600.0" y="379.0" text-anchor="middle" font-family="Segoe UI, Inter, Arial, sans-serif" font-size="18" font-weight="500" fill="#1f2937">canonical evidence substrate</text></g>
<rect x="465" y="465" width="270" height="92" rx="10" fill="#e6f4df" stroke="#5f9d49" stroke-width="2"/>
<g class="node-label"><text x="600.0" y="505.9" text-anchor="middle" font-family="Segoe UI, Inter, Arial, sans-serif" font-size="16" font-weight="500" fill="#1f2937">Review pack and UI</text><text x="600.0" y="527.0" text-anchor="middle" font-family="Segoe UI, Inter, Arial, sans-serif" font-size="16" font-weight="500" fill="#1f2937">draft cards become reviewable</text></g>
<rect x="465" y="615" width="270" height="92" rx="10" fill="#e6f4df" stroke="#5f9d49" stroke-width="2"/>
<g class="node-label"><text x="600.0" y="655.9" text-anchor="middle" font-family="Segoe UI, Inter, Arial, sans-serif" font-size="16" font-weight="500" fill="#1f2937">Reviewed episode cards</text><text x="600.0" y="677.0" text-anchor="middle" font-family="Segoe UI, Inter, Arial, sans-serif" font-size="16" font-weight="500" fill="#1f2937">trusted runtime event memory</text></g>
<rect x="800" y="330" width="68" height="330" rx="10" fill="#f8fafc" stroke="#64748b" stroke-width="2"/>
<g class="node-label"><text x="834.0" y="492.0" text-anchor="middle" font-family="Segoe UI, Inter, Arial, sans-serif" font-size="9" font-weight="700" fill="#1f2937">memory</text><text x="834.0" y="504.0" text-anchor="middle" font-family="Segoe UI, Inter, Arial, sans-serif" font-size="9" font-weight="700" fill="#1f2937">inputs</text></g>
<rect x="1300" y="220" width="68" height="410" rx="10" fill="#f8fafc" stroke="#64748b" stroke-width="2"/>
<g class="node-label"><text x="1334.0" y="422.0" text-anchor="middle" font-family="Segoe UI, Inter, Arial, sans-serif" font-size="9" font-weight="700" fill="#1f2937">request</text><text x="1334.0" y="434.0" text-anchor="middle" font-family="Segoe UI, Inter, Arial, sans-serif" font-size="9" font-weight="700" fill="#1f2937">entry</text></g>
<rect x="930" y="170" width="255" height="92" rx="10" fill="#e8f0ff" stroke="#5f78c8" stroke-width="2"/>
<g class="node-label"><text x="1057.5" y="211.2" text-anchor="middle" font-family="Segoe UI, Inter, Arial, sans-serif" font-size="15" font-weight="500" fill="#1f2937">RuntimeSession</text><text x="1057.5" y="231.0" text-anchor="middle" font-family="Segoe UI, Inter, Arial, sans-serif" font-size="15" font-weight="500" fill="#1f2937">request entry and orchestration</text></g>
<rect x="930" y="345" width="255" height="110" rx="10" fill="#e8f0ff" stroke="#5f78c8" stroke-width="2"/>
<g class="node-label"><text x="1057.5" y="382.4" text-anchor="middle" font-family="Segoe UI, Inter, Arial, sans-serif" font-size="18" font-weight="500" fill="#1f2937">Retrieval engine</text><text x="1057.5" y="406.1" text-anchor="middle" font-family="Segoe UI, Inter, Arial, sans-serif" font-size="18" font-weight="500" fill="#1f2937">fusion across trusted and</text><text x="1057.5" y="429.9" text-anchor="middle" font-family="Segoe UI, Inter, Arial, sans-serif" font-size="18" font-weight="500" fill="#1f2937">helper layers</text></g>
<rect x="930" y="520" width="255" height="92" rx="10" fill="#e7f3ff" stroke="#4f83bd" stroke-width="2"/>
<g class="node-label"><text x="1057.5" y="555.2" text-anchor="middle" font-family="Segoe UI, Inter, Arial, sans-serif" font-size="11" font-weight="500" fill="#1f2937">Context package</text><text x="1057.5" y="569.7" text-anchor="middle" font-family="Segoe UI, Inter, Arial, sans-serif" font-size="11" font-weight="500" fill="#1f2937">bounded evidence plus strict active-scope</text><text x="1057.5" y="584.3" text-anchor="middle" font-family="Segoe UI, Inter, Arial, sans-serif" font-size="11" font-weight="500" fill="#1f2937">scratchpad_ephemeral WSS</text></g>
<rect x="930" y="655" width="255" height="92" rx="10" fill="#e9e6ff" stroke="#7869c6" stroke-width="2"/>
<g class="node-label"><text x="1057.5" y="695.2" text-anchor="middle" font-family="Segoe UI, Inter, Arial, sans-serif" font-size="18" font-weight="500" fill="#1f2937">Verifier and responder</text><text x="1057.5" y="719.0" text-anchor="middle" font-family="Segoe UI, Inter, Arial, sans-serif" font-size="18" font-weight="500" fill="#1f2937">answer, abstain, or clarify</text></g>
<rect x="1430" y="165" width="280" height="86" rx="10" fill="#f3e8ff" stroke="#8b5fbf" stroke-width="2"/>
<g class="node-label"><text x="1570.0" y="202.9" text-anchor="middle" font-family="Segoe UI, Inter, Arial, sans-serif" font-size="16" font-weight="500" fill="#1f2937">Desktop shell</text><text x="1570.0" y="224.0" text-anchor="middle" font-family="Segoe UI, Inter, Arial, sans-serif" font-size="16" font-weight="500" fill="#1f2937">managed local operator surface</text></g>
<rect x="1430" y="315" width="280" height="86" rx="10" fill="#f3e8ff" stroke="#8b5fbf" stroke-width="2"/>
<g class="node-label"><text x="1570.0" y="352.9" text-anchor="middle" font-family="Segoe UI, Inter, Arial, sans-serif" font-size="16" font-weight="500" fill="#1f2937">integration-v1</text><text x="1570.0" y="374.0" text-anchor="middle" font-family="Segoe UI, Inter, Arial, sans-serif" font-size="16" font-weight="500" fill="#1f2937">preferred orchestration contract</text></g>
<rect x="1430" y="465" width="280" height="96" rx="10" fill="#f3e8ff" stroke="#8b5fbf" stroke-width="2"/>
<g class="node-label"><text x="1570.0" y="507.2" text-anchor="middle" font-family="Segoe UI, Inter, Arial, sans-serif" font-size="18" font-weight="500" fill="#1f2937">MCP sidecar and adapters</text><text x="1570.0" y="531.0" text-anchor="middle" font-family="Segoe UI, Inter, Arial, sans-serif" font-size="18" font-weight="500" fill="#1f2937">OpenClaw, Hermes, Nanobot</text></g>
<rect x="1430" y="625" width="280" height="100" rx="10" fill="#ffe6e3" stroke="#bb5b54" stroke-width="2"/>
<g class="node-label"><text x="1570.0" y="659.3" text-anchor="middle" font-family="Segoe UI, Inter, Arial, sans-serif" font-size="16" font-weight="500" fill="#1f2937">Response metadata</text><text x="1570.0" y="680.4" text-anchor="middle" font-family="Segoe UI, Inter, Arial, sans-serif" font-size="16" font-weight="500" fill="#1f2937">context.why and proposal</text><text x="1570.0" y="701.6" text-anchor="middle" font-family="Segoe UI, Inter, Arial, sans-serif" font-size="16" font-weight="500" fill="#1f2937">writeback</text></g>
<rect x="380" y="845" width="1010" height="86" rx="10" fill="#fffbe8" stroke="#d6a21f" stroke-width="2"/>
<g class="node-label"><text x="885.0" y="883.2" text-anchor="middle" font-family="Segoe UI, Inter, Arial, sans-serif" font-size="15" font-weight="700" fill="#1f2937">Architectural invariant</text><text x="885.0" y="903.0" text-anchor="middle" font-family="Segoe UI, Inter, Arial, sans-serif" font-size="15" font-weight="700" fill="#1f2937">Reviewed canonical truth &gt; evidence atoms &gt; consolidated provisional &gt; observed provisional. STM/WSS support work continuity only.</text></g>
<polygon points="465.0,197.2 454.2,202.5 454.2,191.9" fill="#b97818"/>
<polygon points="465.0,234.0 454.3,239.4 454.1,228.9" fill="#b97818"/>
<polygon points="600.0,315.0 594.7,304.2 605.3,304.2" fill="#b8693d"/>
<polygon points="600.0,465.0 594.7,454.2 605.3,454.2" fill="#4f83bd"/>
<polygon points="465.0,531.2 454.3,536.6 454.2,526.1" fill="#bb5b54"/>
<polygon points="600.0,615.0 594.7,604.2 605.3,604.2" fill="#5f9d49"/>
<polygon points="800.0,402.6 789.2,407.9 789.2,397.3" fill="#4f83bd"/>
<polygon points="800.0,587.4 789.2,592.7 789.2,582.1" fill="#5f9d49"/>
<polygon points="930.0,400.0 919.2,405.3 919.2,394.7" fill="#64748b"/>
<polygon points="1368.0,285.6 1378.8,280.3 1378.8,290.9" fill="#8b5fbf"/>
<polygon points="1368.0,404.5 1378.8,399.2 1378.8,409.8" fill="#8b5fbf"/>
<polygon points="1368.0,515.2 1378.8,509.9 1378.8,520.5" fill="#8b5fbf"/>
<polygon points="1185.0,229.8 1195.8,224.5 1195.8,235.1" fill="#64748b"/>
<polygon points="1057.5,345.0 1052.2,334.2 1062.8,334.2" fill="#5f78c8"/>
<polygon points="1057.5,520.0 1052.2,509.2 1062.8,509.2" fill="#5f78c8"/>
<polygon points="1057.5,655.0 1052.2,644.2 1062.8,644.2" fill="#7869c6"/>
<polygon points="1430.0,685.0 1419.2,690.3 1419.2,679.7" fill="#bb5b54"/>
<rect x="52.0" y="1023.0" width="18" height="18" rx="4" fill="#fff4db" stroke="#b97818" stroke-width="1.5"/>
<text x="80.0" y="1038.0" font-family="Segoe UI, Inter, Arial, sans-serif" font-size="14" font-weight="700" fill="#5f3b05">source</text>
<rect x="212.0" y="1023.0" width="18" height="18" rx="4" fill="#e7f3ff" stroke="#4f83bd" stroke-width="1.5"/>
<text x="240.0" y="1038.0" font-family="Segoe UI, Inter, Arial, sans-serif" font-size="14" font-weight="700" fill="#213f5f">evidence</text>
<rect x="372.0" y="1023.0" width="18" height="18" rx="4" fill="#e6f4df" stroke="#5f9d49" stroke-width="1.5"/>
<text x="400.0" y="1038.0" font-family="Segoe UI, Inter, Arial, sans-serif" font-size="14" font-weight="700" fill="#244c1f">reviewed truth</text>
<rect x="536.0" y="1023.0" width="18" height="18" rx="4" fill="#e8f0ff" stroke="#5f78c8" stroke-width="1.5"/>
<text x="564.0" y="1038.0" font-family="Segoe UI, Inter, Arial, sans-serif" font-size="14" font-weight="700" fill="#263967">runtime</text>
<rect x="696.0" y="1023.0" width="18" height="18" rx="4" fill="#f3e8ff" stroke="#8b5fbf" stroke-width="1.5"/>
<text x="724.0" y="1038.0" font-family="Segoe UI, Inter, Arial, sans-serif" font-size="14" font-weight="700" fill="#3f285e">integration</text>
<rect x="856.0" y="1023.0" width="18" height="18" rx="4" fill="#ffe6e3" stroke="#bb5b54" stroke-width="1.5"/>
<text x="884.0" y="1038.0" font-family="Segoe UI, Inter, Arial, sans-serif" font-size="14" font-weight="700" fill="#612823">governance</text>
</svg>
