<?xml version="1.0" encoding="UTF-8"?>
<svg xmlns="http://www.w3.org/2000/svg" width="1930" height="1110" viewBox="0 0 1930 1110" role="img" aria-label="MNO Architecture - Data Lineage">
<rect width="100%" height="100%" fill="#ffffff"/>
<text x="52" y="54" font-family="Segoe UI, Inter, Arial, sans-serif" font-size="30" font-weight="800" fill="#1e293b">MNO Architecture - Data Lineage</text>
<text x="52" y="86" font-family="Segoe UI, Inter, Arial, sans-serif" font-size="16" font-weight="500" fill="#64748b">How source material becomes evidence, reviewed cards, runtime citations, and inspectable context.why trails.</text>
<rect x="55" y="125" width="325" height="720" rx="14" fill="#fffaf0" stroke="#d9a441" stroke-width="2"/>
<text x="75.0" y="159.0" font-family="Segoe UI, Inter, Arial, sans-serif" font-size="20" font-weight="800" fill="#5f3b05">Source Identity</text>
<rect x="430" y="125" width="325" height="720" rx="14" fill="#fff3eb" stroke="#d18a61" stroke-width="2"/>
<text x="450.0" y="159.0" font-family="Segoe UI, Inter, Arial, sans-serif" font-size="20" font-weight="800" fill="#5b2b16">Evidence IDs</text>
<rect x="805" y="125" width="325" height="720" rx="14" fill="#f4fbef" stroke="#82b366" stroke-width="2"/>
<text x="825.0" y="159.0" font-family="Segoe UI, Inter, Arial, sans-serif" font-size="20" font-weight="800" fill="#244c1f">Review IDs</text>
<rect x="1180" y="125" width="325" height="720" rx="14" fill="#f1f6ff" stroke="#7b9bd6" stroke-width="2"/>
<text x="1200.0" y="159.0" font-family="Segoe UI, Inter, Arial, sans-serif" font-size="20" font-weight="800" fill="#263967">Runtime Evidence</text>
<rect x="1555" y="125" width="325" height="720" rx="14" fill="#faf4ff" stroke="#a889cc" stroke-width="2"/>
<text x="1575.0" y="159.0" font-family="Segoe UI, Inter, Arial, sans-serif" font-size="20" font-weight="800" fill="#3f285e">Explainability</text>
<line x1="780.0" y1="145.0" x2="780.0" y2="820.0" stroke="#bb5b54" stroke-width="3" stroke-dasharray="10 8"/>
<rect x="785.0" y="794.0" width="158" height="24" rx="6" fill="#ffffff" fill-opacity="0.92"/>
<text x="790.0" y="812.0" font-family="Segoe UI, Inter, Arial, sans-serif" font-size="14" font-weight="800" fill="#bb5b54">review creates authority</text>
<polyline points="217.5,281.0 217.5,390.0" fill="none" stroke="#b97818" stroke-width="2.8" stroke-linecap="round" stroke-linejoin="round"/>
<polyline points="217.5,476.0 217.5,585.0" fill="none" stroke="#b97818" stroke-width="2.8" stroke-linecap="round" stroke-linejoin="round" stroke-dasharray="8 8"/>
<polyline points="340.0,426.1 405.0,426.1 405.0,288.0 470.0,288.0" fill="none" stroke="#4f83bd" stroke-width="2.8" stroke-linecap="round" stroke-linejoin="round"/>
<polyline points="340.0,632.3 405.0,632.3 405.0,586.0 470.0,586.0" fill="none" stroke="#4f83bd" stroke-width="2.8" stroke-linecap="round" stroke-linejoin="round" stroke-dasharray="8 8"/>
<polyline points="715.0,281.1 780.0,281.1 780.0,258.4 845.0,258.4" fill="none" stroke="#4f83bd" stroke-width="2.8" stroke-linecap="round" stroke-linejoin="round"/>
<polyline points="967.5,298.0 967.5,390.0" fill="none" stroke="#5f9d49" stroke-width="2.8" stroke-linecap="round" stroke-linejoin="round"/>
<polyline points="967.5,478.0 967.5,575.0" fill="none" stroke="#bb5b54" stroke-width="2.8" stroke-linecap="round" stroke-linejoin="round"/>
<polyline points="1090.0,608.6 1155.0,609.0 1155.0,309.0 1220.0,309.0 1220.0,311.2" fill="none" stroke="#5f9d49" stroke-width="2.8" stroke-linecap="round" stroke-linejoin="round"/>
<polyline points="715.0,586.0 780.0,586.0 780.0,805.0 1160.0,805.0 1160.0,504.0 1220.0,504.4" fill="none" stroke="#4f83bd" stroke-width="2.8" stroke-linecap="round" stroke-linejoin="round" stroke-dasharray="8 8"/>
<polyline points="1342.5,337.0 1342.5,440.0" fill="none" stroke="#5f9d49" stroke-width="2.8" stroke-linecap="round" stroke-linejoin="round"/>
<polyline points="1342.5,532.0 1342.5,635.0" fill="none" stroke="#7869c6" stroke-width="2.8" stroke-linecap="round" stroke-linejoin="round"/>
<polyline points="1465.0,667.2 1530.0,667.0 1530.0,309.0 1595.0,309.4" fill="none" stroke="#7869c6" stroke-width="2.8" stroke-linecap="round" stroke-linejoin="round"/>
<polyline points="1465.0,486.0 1595.0,486.0" fill="none" stroke="#8b5fbf" stroke-width="2.8" stroke-linecap="round" stroke-linejoin="round"/>
<polyline points="1090.0,637.4 1155.0,637.0 1155.0,770.0 1530.0,770.0 1530.0,681.0 1595.0,681.0" fill="none" stroke="#687989" stroke-width="2.8" stroke-linecap="round" stroke-linejoin="round"/>
<rect x="95" y="195" width="245" height="86" rx="10" fill="#fff4db" stroke="#b97818" stroke-width="2"/>
<g class="node-label"><text x="217.5" y="233.5" text-anchor="middle" font-family="Segoe UI, Inter, Arial, sans-serif" font-size="14" font-weight="500" fill="#1f2937">Raw source snapshot</text><text x="217.5" y="252.0" text-anchor="middle" font-family="Segoe UI, Inter, Arial, sans-serif" font-size="14" font-weight="500" fill="#1f2937">file path, export ID, folder batch</text></g>
<rect x="95" y="390" width="245" height="86" rx="10" fill="#fff4db" stroke="#b97818" stroke-width="2"/>
<g class="node-label"><text x="217.5" y="428.8" text-anchor="middle" font-family="Segoe UI, Inter, Arial, sans-serif" font-size="13" font-weight="500" fill="#1f2937">Normalized turn</text><text x="217.5" y="446.0" text-anchor="middle" font-family="Segoe UI, Inter, Arial, sans-serif" font-size="13" font-weight="500" fill="#1f2937">role, timestamp, cleaned text span</text></g>
<rect x="95" y="585" width="245" height="86" rx="10" fill="#e7f3ff" stroke="#4f83bd" stroke-width="2"/>
<g class="node-label"><text x="217.5" y="623.5" text-anchor="middle" font-family="Segoe UI, Inter, Arial, sans-serif" font-size="14" font-weight="500" fill="#1f2937">Original wording receipt</text><text x="217.5" y="642.0" text-anchor="middle" font-family="Segoe UI, Inter, Arial, sans-serif" font-size="14" font-weight="500" fill="#1f2937">bounded source-context pointer</text></g>
<rect x="470" y="245" width="245" height="86" rx="10" fill="#e7f3ff" stroke="#4f83bd" stroke-width="2"/>
<g class="node-label"><text x="592.5" y="284.2" text-anchor="middle" font-family="Segoe UI, Inter, Arial, sans-serif" font-size="12" font-weight="500" fill="#1f2937">Evidence atom</text><text x="592.5" y="300.0" text-anchor="middle" font-family="Segoe UI, Inter, Arial, sans-serif" font-size="12" font-weight="500" fill="#1f2937">atom_id plus provenance metadata</text></g>
<rect x="470" y="540" width="245" height="92" rx="10" fill="#e7f3ff" stroke="#4f83bd" stroke-width="2"/>
<g class="node-label"><text x="592.5" y="572.3" text-anchor="middle" font-family="Segoe UI, Inter, Arial, sans-serif" font-size="14" font-weight="500" fill="#1f2937">Raw-context sidecar row</text><text x="592.5" y="590.8" text-anchor="middle" font-family="Segoe UI, Inter, Arial, sans-serif" font-size="14" font-weight="500" fill="#1f2937">quote lookup key and source</text><text x="592.5" y="609.2" text-anchor="middle" font-family="Segoe UI, Inter, Arial, sans-serif" font-size="14" font-weight="500" fill="#1f2937">span</text></g>
<rect x="845" y="210" width="245" height="88" rx="10" fill="#e1f4f0" stroke="#398f83" stroke-width="2"/>
<g class="node-label"><text x="967.5" y="241.3" text-anchor="middle" font-family="Segoe UI, Inter, Arial, sans-serif" font-size="13" font-weight="500" fill="#1f2937">Draft episode card</text><text x="967.5" y="258.4" text-anchor="middle" font-family="Segoe UI, Inter, Arial, sans-serif" font-size="13" font-weight="500" fill="#1f2937">candidate event memory, not</text><text x="967.5" y="275.6" text-anchor="middle" font-family="Segoe UI, Inter, Arial, sans-serif" font-size="13" font-weight="500" fill="#1f2937">trusted</text></g>
<rect x="845" y="390" width="245" height="88" rx="10" fill="#ffe6e3" stroke="#bb5b54" stroke-width="2"/>
<g class="node-label"><text x="967.5" y="421.3" text-anchor="middle" font-family="Segoe UI, Inter, Arial, sans-serif" font-size="13" font-weight="500" fill="#1f2937">Review decision</text><text x="967.5" y="438.4" text-anchor="middle" font-family="Segoe UI, Inter, Arial, sans-serif" font-size="13" font-weight="500" fill="#1f2937">approved, edited, rejected,</text><text x="967.5" y="455.6" text-anchor="middle" font-family="Segoe UI, Inter, Arial, sans-serif" font-size="13" font-weight="500" fill="#1f2937">annotated</text></g>
<rect x="845" y="575" width="245" height="96" rx="10" fill="#e6f4df" stroke="#5f9d49" stroke-width="2"/>
<g class="node-label"><text x="967.5" y="608.3" text-anchor="middle" font-family="Segoe UI, Inter, Arial, sans-serif" font-size="15" font-weight="500" fill="#1f2937">Truth lineage</text><text x="967.5" y="628.1" text-anchor="middle" font-family="Segoe UI, Inter, Arial, sans-serif" font-size="15" font-weight="500" fill="#1f2937">truth_family_id, current flag,</text><text x="967.5" y="647.9" text-anchor="middle" font-family="Segoe UI, Inter, Arial, sans-serif" font-size="15" font-weight="500" fill="#1f2937">supersedes</text></g>
<rect x="1220" y="245" width="245" height="92" rx="10" fill="#e6f4df" stroke="#5f9d49" stroke-width="2"/>
<g class="node-label"><text x="1342.5" y="277.3" text-anchor="middle" font-family="Segoe UI, Inter, Arial, sans-serif" font-size="14" font-weight="500" fill="#1f2937">Lineage resolver</text><text x="1342.5" y="295.8" text-anchor="middle" font-family="Segoe UI, Inter, Arial, sans-serif" font-size="14" font-weight="500" fill="#1f2937">current reviewed truth wins over</text><text x="1342.5" y="314.2" text-anchor="middle" font-family="Segoe UI, Inter, Arial, sans-serif" font-size="14" font-weight="500" fill="#1f2937">superseded</text></g>
<rect x="1220" y="440" width="245" height="92" rx="10" fill="#e7f3ff" stroke="#4f83bd" stroke-width="2"/>
<g class="node-label"><text x="1342.5" y="481.2" text-anchor="middle" font-family="Segoe UI, Inter, Arial, sans-serif" font-size="15" font-weight="500" fill="#1f2937">Evidence pack</text><text x="1342.5" y="501.0" text-anchor="middle" font-family="Segoe UI, Inter, Arial, sans-serif" font-size="15" font-weight="500" fill="#1f2937">atom IDs, card IDs, quote refs</text></g>
<rect x="1220" y="635" width="245" height="92" rx="10" fill="#e9e6ff" stroke="#7869c6" stroke-width="2"/>
<g class="node-label"><text x="1342.5" y="667.3" text-anchor="middle" font-family="Segoe UI, Inter, Arial, sans-serif" font-size="14" font-weight="500" fill="#1f2937">Verifier path</text><text x="1342.5" y="685.8" text-anchor="middle" font-family="Segoe UI, Inter, Arial, sans-serif" font-size="14" font-weight="500" fill="#1f2937">claim must stay supported by</text><text x="1342.5" y="704.2" text-anchor="middle" font-family="Segoe UI, Inter, Arial, sans-serif" font-size="14" font-weight="500" fill="#1f2937">evidence</text></g>
<rect x="1595" y="245" width="245" height="92" rx="10" fill="#f3e8ff" stroke="#8b5fbf" stroke-width="2"/>
<g class="node-label"><text x="1717.5" y="277.3" text-anchor="middle" font-family="Segoe UI, Inter, Arial, sans-serif" font-size="14" font-weight="500" fill="#1f2937">Answer metadata</text><text x="1717.5" y="295.8" text-anchor="middle" font-family="Segoe UI, Inter, Arial, sans-serif" font-size="14" font-weight="500" fill="#1f2937">citations and abstain/clarify</text><text x="1717.5" y="314.2" text-anchor="middle" font-family="Segoe UI, Inter, Arial, sans-serif" font-size="14" font-weight="500" fill="#1f2937">reason</text></g>
<rect x="1595" y="440" width="245" height="92" rx="10" fill="#f3e8ff" stroke="#8b5fbf" stroke-width="2"/>
<g class="node-label"><text x="1717.5" y="472.3" text-anchor="middle" font-family="Segoe UI, Inter, Arial, sans-serif" font-size="14" font-weight="500" fill="#1f2937">context.why</text><text x="1717.5" y="490.8" text-anchor="middle" font-family="Segoe UI, Inter, Arial, sans-serif" font-size="14" font-weight="500" fill="#1f2937">reason trail from output back to</text><text x="1717.5" y="509.2" text-anchor="middle" font-family="Segoe UI, Inter, Arial, sans-serif" font-size="14" font-weight="500" fill="#1f2937">source</text></g>
<rect x="1595" y="635" width="245" height="92" rx="10" fill="#edf1f5" stroke="#687989" stroke-width="2"/>
<g class="node-label"><text x="1717.5" y="667.3" text-anchor="middle" font-family="Segoe UI, Inter, Arial, sans-serif" font-size="14" font-weight="500" fill="#1f2937">Audit and debug</text><text x="1717.5" y="685.8" text-anchor="middle" font-family="Segoe UI, Inter, Arial, sans-serif" font-size="14" font-weight="500" fill="#1f2937">trace cards, atoms, receipts,</text><text x="1717.5" y="704.2" text-anchor="middle" font-family="Segoe UI, Inter, Arial, sans-serif" font-size="14" font-weight="500" fill="#1f2937">review choice</text></g>
<rect x="520" y="880" width="895" height="78" rx="10" fill="#fffbe8" stroke="#d6a21f" stroke-width="2"/>
<g class="node-label"><text x="967.5" y="914.2" text-anchor="middle" font-family="Segoe UI, Inter, Arial, sans-serif" font-size="15" font-weight="700" fill="#1f2937">Lineage rule</text><text x="967.5" y="934.0" text-anchor="middle" font-family="Segoe UI, Inter, Arial, sans-serif" font-size="15" font-weight="700" fill="#1f2937">History is preserved. Current reviewed cards are preferred at read time, but older reviewed cards remain traceable.</text></g>
<polygon points="217.5,390.0 212.2,379.2 222.8,379.2" fill="#b97818"/>
<polygon points="217.5,585.0 212.2,574.2 222.8,574.2" fill="#b97818"/>
<polygon points="470.0,288.0 459.2,293.3 459.2,282.7" fill="#4f83bd"/>
<polygon points="470.0,586.0 459.2,591.3 459.2,580.7" fill="#4f83bd"/>
<polygon points="845.0,258.4 834.2,263.7 834.2,253.1" fill="#4f83bd"/>
<polygon points="967.5,390.0 962.2,379.2 972.8,379.2" fill="#5f9d49"/>
<polygon points="967.5,575.0 962.2,564.2 972.8,564.2" fill="#bb5b54"/>
<polygon points="1220.0,311.2 1214.7,300.5 1225.3,300.5" fill="#5f9d49"/>
<polygon points="1220.0,504.4 1209.2,509.6 1209.2,499.1" fill="#4f83bd"/>
<polygon points="1342.5,440.0 1337.2,429.2 1347.8,429.2" fill="#5f9d49"/>
<polygon points="1342.5,635.0 1337.2,624.2 1347.8,624.2" fill="#7869c6"/>
<polygon points="1595.0,309.4 1584.2,314.6 1584.2,304.1" fill="#7869c6"/>
<polygon points="1595.0,486.0 1584.2,491.3 1584.2,480.7" fill="#8b5fbf"/>
<polygon points="1595.0,681.0 1584.2,686.3 1584.2,675.7" fill="#687989"/>
<rect x="52.0" y="1033.0" width="18" height="18" rx="4" fill="#fff4db" stroke="#b97818" stroke-width="1.5"/>
<text x="80.0" y="1048.0" font-family="Segoe UI, Inter, Arial, sans-serif" font-size="14" font-weight="700" fill="#5f3b05">source</text>
<rect x="212.0" y="1033.0" width="18" height="18" rx="4" fill="#e7f3ff" stroke="#4f83bd" stroke-width="1.5"/>
<text x="240.0" y="1048.0" font-family="Segoe UI, Inter, Arial, sans-serif" font-size="14" font-weight="700" fill="#213f5f">evidence</text>
<rect x="372.0" y="1033.0" width="18" height="18" rx="4" fill="#e6f4df" stroke="#5f9d49" stroke-width="1.5"/>
<text x="400.0" y="1048.0" font-family="Segoe UI, Inter, Arial, sans-serif" font-size="14" font-weight="700" fill="#244c1f">reviewed truth</text>
<rect x="536.0" y="1033.0" width="18" height="18" rx="4" fill="#e8f0ff" stroke="#5f78c8" stroke-width="1.5"/>
<text x="564.0" y="1048.0" font-family="Segoe UI, Inter, Arial, sans-serif" font-size="14" font-weight="700" fill="#263967">runtime</text>
<rect x="696.0" y="1033.0" width="18" height="18" rx="4" fill="#f3e8ff" stroke="#8b5fbf" stroke-width="1.5"/>
<text x="724.0" y="1048.0" font-family="Segoe UI, Inter, Arial, sans-serif" font-size="14" font-weight="700" fill="#3f285e">integration</text>
<rect x="856.0" y="1033.0" width="18" height="18" rx="4" fill="#ffe6e3" stroke="#bb5b54" stroke-width="1.5"/>
<text x="884.0" y="1048.0" font-family="Segoe UI, Inter, Arial, sans-serif" font-size="14" font-weight="700" fill="#612823">governance</text>
</svg>
