<?xml version="1.0" encoding="UTF-8"?>
<svg xmlns="http://www.w3.org/2000/svg" width="1960" height="1100" viewBox="0 0 1960 1100" role="img" aria-label="MNO Architecture - Deployment And Process Model">
<rect width="100%" height="100%" fill="#ffffff"/>
<text x="52" y="54" font-family="Segoe UI, Inter, Arial, sans-serif" font-size="30" font-weight="800" fill="#1e293b">MNO Architecture - Deployment And Process Model</text>
<text x="52" y="86" font-family="Segoe UI, Inter, Arial, sans-serif" font-size="16" font-weight="500" fill="#64748b">The local process layout for setup, import/build/review, runtime launch, MCP, adapters, and governed outputs.</text>
<rect x="55" y="125" width="345" height="715" rx="14" fill="#fffaf0" stroke="#d9a441" stroke-width="2"/>
<text x="75.0" y="159.0" font-family="Segoe UI, Inter, Arial, sans-serif" font-size="20" font-weight="800" fill="#5f3b05">Local Workspace</text>
<rect x="455" y="125" width="330" height="715" rx="14" fill="#fff3eb" stroke="#d18a61" stroke-width="2"/>
<text x="475.0" y="159.0" font-family="Segoe UI, Inter, Arial, sans-serif" font-size="20" font-weight="800" fill="#5b2b16">Build Tools</text>
<rect x="840" y="125" width="360" height="715" rx="14" fill="#f1f6ff" stroke="#7b9bd6" stroke-width="2"/>
<text x="860.0" y="159.0" font-family="Segoe UI, Inter, Arial, sans-serif" font-size="20" font-weight="800" fill="#263967">Runtime Processes</text>
<rect x="1255" y="125" width="300" height="715" rx="14" fill="#faf4ff" stroke="#a889cc" stroke-width="2"/>
<text x="1275.0" y="159.0" font-family="Segoe UI, Inter, Arial, sans-serif" font-size="20" font-weight="800" fill="#3f285e">Integration Clients</text>
<rect x="1610" y="125" width="300" height="715" rx="14" fill="#fff1ef" stroke="#c8756d" stroke-width="2"/>
<text x="1630.0" y="159.0" font-family="Segoe UI, Inter, Arial, sans-serif" font-size="20" font-weight="800" fill="#612823">State And Outputs</text>
<polyline points="360.0,238.0 425.0,238.0 425.0,233.6 490.0,233.6" fill="none" stroke="#b97818" stroke-width="2.8" stroke-linecap="round" stroke-linejoin="round"/>
<polyline points="490.0,272.0 420.0,272.0 420.0,436.0 360.0,436.0 360.0,431.4" fill="none" stroke="#b97818" stroke-width="2.8" stroke-linecap="round" stroke-linejoin="round"/>
<polyline points="360.0,436.0 425.0,436.0 425.0,456.0 490.0,456.0" fill="none" stroke="#687989" stroke-width="2.8" stroke-linecap="round" stroke-linejoin="round"/>
<polyline points="490.0,484.0 420.0,484.0 420.0,636.0 360.0,636.4" fill="none" stroke="#5f9d49" stroke-width="2.8" stroke-linecap="round" stroke-linejoin="round"/>
<polyline points="360.0,641.0 425.0,641.0 425.0,665.0 490.0,665.0" fill="none" stroke="#5f9d49" stroke-width="2.8" stroke-linecap="round" stroke-linejoin="round"/>
<polyline points="750.0,650.0 815.0,650.0 815.0,437.0 885.0,436.6" fill="none" stroke="#5f9d49" stroke-width="2.8" stroke-linecap="round" stroke-linejoin="round"/>
<polyline points="750.0,233.6 817.5,233.6 817.5,228.0 885.0,228.0" fill="none" stroke="#8b5fbf" stroke-width="2.8" stroke-linecap="round" stroke-linejoin="round"/>
<polyline points="1020.0,276.0 1020.0,375.0" fill="none" stroke="#5f78c8" stroke-width="2.8" stroke-linecap="round" stroke-linejoin="round"/>
<polyline points="1020.0,463.0 1020.0,575.0" fill="none" stroke="#5f78c8" stroke-width="2.8" stroke-linecap="round" stroke-linejoin="round"/>
<polyline points="1155.0,405.8 1227.0,406.0 1227.0,279.0 1295.0,278.5" fill="none" stroke="#8b5fbf" stroke-width="2.8" stroke-linecap="round" stroke-linejoin="round"/>
<polyline points="1155.0,627.8 1225.0,627.8 1225.0,502.6 1295.0,502.6" fill="none" stroke="#8b5fbf" stroke-width="2.8" stroke-linecap="round" stroke-linejoin="round"/>
<polyline points="1515.0,265.0 1582.5,265.0 1582.5,273.0 1650.0,273.0" fill="none" stroke="#7869c6" stroke-width="2.8" stroke-linecap="round" stroke-linejoin="round"/>
<polyline points="1515.0,478.6 1580.0,479.0 1580.0,297.0 1650.0,297.0" fill="none" stroke="#7869c6" stroke-width="2.8" stroke-linecap="round" stroke-linejoin="round"/>
<polyline points="1515.0,507.4 1582.5,507.4 1582.5,493.0 1650.0,493.0" fill="none" stroke="#bb5b54" stroke-width="2.8" stroke-linecap="round" stroke-linejoin="round"/>
<polyline points="1155.0,441.0 1227.0,441.0 1227.0,693.0 1650.0,693.0" fill="none" stroke="#687989" stroke-width="2.8" stroke-linecap="round" stroke-linejoin="round"/>
<polyline points="1650.0,514.1 1580.0,514.0 1580.0,790.0 380.0,790.0 380.0,660.0 360.0,660.0 360.0,661.2" fill="none" stroke="#bb5b54" stroke-width="2.8" stroke-linecap="round" stroke-linejoin="round" stroke-dasharray="8 8"/>
<rect x="95" y="195" width="265" height="86" rx="10" fill="#fff4db" stroke="#b97818" stroke-width="2"/>
<g class="node-label"><text x="227.5" y="232.9" text-anchor="middle" font-family="Segoe UI, Inter, Arial, sans-serif" font-size="16" font-weight="500" fill="#1f2937">Source files and folders</text><text x="227.5" y="254.0" text-anchor="middle" font-family="Segoe UI, Inter, Arial, sans-serif" font-size="16" font-weight="500" fill="#1f2937">operator-selected local material</text></g>
<rect x="95" y="390" width="265" height="92" rx="10" fill="#edf1f5" stroke="#687989" stroke-width="2"/>
<g class="node-label"><text x="227.5" y="422.3" text-anchor="middle" font-family="Segoe UI, Inter, Arial, sans-serif" font-size="14" font-weight="500" fill="#1f2937">runtime/ workspace</text><text x="227.5" y="440.8" text-anchor="middle" font-family="Segoe UI, Inter, Arial, sans-serif" font-size="14" font-weight="500" fill="#1f2937">imports, episodes, WSS</text><text x="227.5" y="459.2" text-anchor="middle" font-family="Segoe UI, Inter, Arial, sans-serif" font-size="14" font-weight="500" fill="#1f2937">scratchpad_ephemeral sidecar, logs</text></g>
<rect x="95" y="595" width="265" height="92" rx="10" fill="#e6f4df" stroke="#5f9d49" stroke-width="2"/>
<g class="node-label"><text x="227.5" y="635.2" text-anchor="middle" font-family="Segoe UI, Inter, Arial, sans-serif" font-size="18" font-weight="500" fill="#1f2937">Review artifacts</text><text x="227.5" y="659.0" text-anchor="middle" font-family="Segoe UI, Inter, Arial, sans-serif" font-size="18" font-weight="500" fill="#1f2937">TSV, MD, reviewed JSON</text></g>
<rect x="490" y="200" width="260" height="96" rx="10" fill="#fff4db" stroke="#b97818" stroke-width="2"/>
<g class="node-label"><text x="620.0" y="233.3" text-anchor="middle" font-family="Segoe UI, Inter, Arial, sans-serif" font-size="15" font-weight="500" fill="#1f2937">run_setup_workspace.py</text><text x="620.0" y="253.1" text-anchor="middle" font-family="Segoe UI, Inter, Arial, sans-serif" font-size="15" font-weight="500" fill="#1f2937">picker UX, bundle export, launch</text><text x="620.0" y="272.9" text-anchor="middle" font-family="Segoe UI, Inter, Arial, sans-serif" font-size="15" font-weight="500" fill="#1f2937">helpers</text></g>
<rect x="490" y="400" width="260" height="112" rx="10" fill="#fde8d6" stroke="#b8693d" stroke-width="2"/>
<g class="node-label"><text x="620.0" y="433.0" text-anchor="middle" font-family="Segoe UI, Inter, Arial, sans-serif" font-size="14" font-weight="500" fill="#1f2937">Import and build tools</text><text x="620.0" y="451.5" text-anchor="middle" font-family="Segoe UI, Inter, Arial, sans-serif" font-size="14" font-weight="500" fill="#1f2937">import_memories.py,</text><text x="620.0" y="470.0" text-anchor="middle" font-family="Segoe UI, Inter, Arial, sans-serif" font-size="14" font-weight="500" fill="#1f2937">import_ia_db.py,</text><text x="620.0" y="488.5" text-anchor="middle" font-family="Segoe UI, Inter, Arial, sans-serif" font-size="14" font-weight="500" fill="#1f2937">build_episode_cards.py</text></g>
<rect x="490" y="615" width="260" height="100" rx="10" fill="#e6f4df" stroke="#5f9d49" stroke-width="2"/>
<g class="node-label"><text x="620.0" y="649.3" text-anchor="middle" font-family="Segoe UI, Inter, Arial, sans-serif" font-size="16" font-weight="500" fill="#1f2937">Review compile tool</text><text x="620.0" y="670.4" text-anchor="middle" font-family="Segoe UI, Inter, Arial, sans-serif" font-size="16" font-weight="500" fill="#1f2937">build_episode_review_pack.py</text><text x="620.0" y="691.6" text-anchor="middle" font-family="Segoe UI, Inter, Arial, sans-serif" font-size="16" font-weight="500" fill="#1f2937">--compile-reviewed</text></g>
<rect x="885" y="180" width="270" height="96" rx="10" fill="#f3e8ff" stroke="#8b5fbf" stroke-width="2"/>
<g class="node-label"><text x="1020.0" y="213.3" text-anchor="middle" font-family="Segoe UI, Inter, Arial, sans-serif" font-size="15" font-weight="500" fill="#1f2937">Electron desktop shell</text><text x="1020.0" y="233.1" text-anchor="middle" font-family="Segoe UI, Inter, Arial, sans-serif" font-size="15" font-weight="500" fill="#1f2937">manages local runtime and</text><text x="1020.0" y="252.9" text-anchor="middle" font-family="Segoe UI, Inter, Arial, sans-serif" font-size="15" font-weight="500" fill="#1f2937">operator UI</text></g>
<rect x="885" y="375" width="270" height="88" rx="10" fill="#e8f0ff" stroke="#5f78c8" stroke-width="2"/>
<g class="node-label"><text x="1020.0" y="413.2" text-anchor="middle" font-family="Segoe UI, Inter, Arial, sans-serif" font-size="18" font-weight="500" fill="#1f2937">Headless HTTP runtime</text><text x="1020.0" y="437.0" text-anchor="middle" font-family="Segoe UI, Inter, Arial, sans-serif" font-size="18" font-weight="500" fill="#1f2937">tools/run_live_runtime.py</text></g>
<rect x="885" y="575" width="270" height="96" rx="10" fill="#f3e8ff" stroke="#8b5fbf" stroke-width="2"/>
<g class="node-label"><text x="1020.0" y="608.3" text-anchor="middle" font-family="Segoe UI, Inter, Arial, sans-serif" font-size="15" font-weight="500" fill="#1f2937">MCP server sidecar</text><text x="1020.0" y="628.1" text-anchor="middle" font-family="Segoe UI, Inter, Arial, sans-serif" font-size="15" font-weight="500" fill="#1f2937">tools/run_mcp_server.py over</text><text x="1020.0" y="647.9" text-anchor="middle" font-family="Segoe UI, Inter, Arial, sans-serif" font-size="15" font-weight="500" fill="#1f2937">runtime</text></g>
<rect x="1295" y="220" width="220" height="90" rx="10" fill="#f3e8ff" stroke="#8b5fbf" stroke-width="2"/>
<g class="node-label"><text x="1405.0" y="260.5" text-anchor="middle" font-family="Segoe UI, Inter, Arial, sans-serif" font-size="14" font-weight="500" fill="#1f2937">integration-v1 client</text><text x="1405.0" y="279.0" text-anchor="middle" font-family="Segoe UI, Inter, Arial, sans-serif" font-size="14" font-weight="500" fill="#1f2937">preferred orchestration path</text></g>
<rect x="1295" y="445" width="220" height="96" rx="10" fill="#f3e8ff" stroke="#8b5fbf" stroke-width="2"/>
<g class="node-label"><text x="1405.0" y="478.3" text-anchor="middle" font-family="Segoe UI, Inter, Arial, sans-serif" font-size="15" font-weight="500" fill="#1f2937">Compatibility clients</text><text x="1405.0" y="498.1" text-anchor="middle" font-family="Segoe UI, Inter, Arial, sans-serif" font-size="15" font-weight="500" fill="#1f2937">reference, OpenClaw,</text><text x="1405.0" y="517.9" text-anchor="middle" font-family="Segoe UI, Inter, Arial, sans-serif" font-size="15" font-weight="500" fill="#1f2937">Hermes, Nanobot</text></g>
<rect x="1650" y="225" width="220" height="96" rx="10" fill="#e9e6ff" stroke="#7869c6" stroke-width="2"/>
<g class="node-label"><text x="1760.0" y="258.3" text-anchor="middle" font-family="Segoe UI, Inter, Arial, sans-serif" font-size="15" font-weight="500" fill="#1f2937">Responses</text><text x="1760.0" y="278.1" text-anchor="middle" font-family="Segoe UI, Inter, Arial, sans-serif" font-size="15" font-weight="500" fill="#1f2937">answer, abstain, clarify,</text><text x="1760.0" y="297.9" text-anchor="middle" font-family="Segoe UI, Inter, Arial, sans-serif" font-size="15" font-weight="500" fill="#1f2937">context.why</text></g>
<rect x="1650" y="445" width="220" height="96" rx="10" fill="#ffe6e3" stroke="#bb5b54" stroke-width="2"/>
<g class="node-label"><text x="1760.0" y="478.3" text-anchor="middle" font-family="Segoe UI, Inter, Arial, sans-serif" font-size="15" font-weight="500" fill="#1f2937">Proposal queue</text><text x="1760.0" y="498.1" text-anchor="middle" font-family="Segoe UI, Inter, Arial, sans-serif" font-size="15" font-weight="500" fill="#1f2937">operator review before</text><text x="1760.0" y="517.9" text-anchor="middle" font-family="Segoe UI, Inter, Arial, sans-serif" font-size="15" font-weight="500" fill="#1f2937">truth mutation</text></g>
<rect x="1650" y="650" width="220" height="86" rx="10" fill="#edf1f5" stroke="#687989" stroke-width="2"/>
<g class="node-label"><text x="1760.0" y="689.2" text-anchor="middle" font-family="Segoe UI, Inter, Arial, sans-serif" font-size="12" font-weight="500" fill="#1f2937">Runtime logs and diagnostics</text><text x="1760.0" y="705.0" text-anchor="middle" font-family="Segoe UI, Inter, Arial, sans-serif" font-size="12" font-weight="500" fill="#1f2937">local operational state, not truth</text></g>
<rect x="515" y="875" width="930" height="78" rx="10" fill="#fffbe8" stroke="#d6a21f" stroke-width="2"/>
<g class="node-label"><text x="980.0" y="910.2" text-anchor="middle" font-family="Segoe UI, Inter, Arial, sans-serif" font-size="12" font-weight="700" fill="#1f2937">Deployment shape</text><text x="980.0" y="926.0" text-anchor="middle" font-family="Segoe UI, Inter, Arial, sans-serif" font-size="12" font-weight="700" fill="#1f2937">MNO is local-first: desktop, HTTP runtime, MCP, review artifacts, logs, and the WSS scratchpad_ephemeral sidecar stay inside the local workspace.</text></g>
<polygon points="490.0,233.6 479.2,238.9 479.2,228.3" fill="#b97818"/>
<polygon points="360.0,431.4 365.3,442.2 354.7,442.2" fill="#b97818"/>
<polygon points="490.0,456.0 479.2,461.3 479.2,450.7" fill="#687989"/>
<polygon points="360.0,636.4 370.8,631.1 370.8,641.6" fill="#5f9d49"/>
<polygon points="490.0,665.0 479.2,670.3 479.2,659.7" fill="#5f9d49"/>
<polygon points="885.0,436.6 874.2,441.9 874.2,431.4" fill="#5f9d49"/>
<polygon points="885.0,228.0 874.2,233.3 874.2,222.7" fill="#8b5fbf"/>
<polygon points="1020.0,375.0 1014.7,364.2 1025.3,364.2" fill="#5f78c8"/>
<polygon points="1020.0,575.0 1014.7,564.2 1025.3,564.2" fill="#5f78c8"/>
<polygon points="1295.0,278.5 1284.3,283.8 1284.2,273.3" fill="#8b5fbf"/>
<polygon points="1295.0,502.6 1284.2,507.9 1284.2,497.3" fill="#8b5fbf"/>
<polygon points="1650.0,273.0 1639.2,278.3 1639.2,267.7" fill="#7869c6"/>
<polygon points="1650.0,297.0 1639.2,302.3 1639.2,291.7" fill="#7869c6"/>
<polygon points="1650.0,493.0 1639.2,498.3 1639.2,487.7" fill="#bb5b54"/>
<polygon points="1650.0,693.0 1639.2,698.3 1639.2,687.7" fill="#687989"/>
<polygon points="360.0,661.2 354.7,650.5 365.3,650.5" fill="#bb5b54"/>
<rect x="52.0" y="1023.0" width="18" height="18" rx="4" fill="#fff4db" stroke="#b97818" stroke-width="1.5"/>
<text x="80.0" y="1038.0" font-family="Segoe UI, Inter, Arial, sans-serif" font-size="14" font-weight="700" fill="#5f3b05">source</text>
<rect x="212.0" y="1023.0" width="18" height="18" rx="4" fill="#e7f3ff" stroke="#4f83bd" stroke-width="1.5"/>
<text x="240.0" y="1038.0" font-family="Segoe UI, Inter, Arial, sans-serif" font-size="14" font-weight="700" fill="#213f5f">evidence</text>
<rect x="372.0" y="1023.0" width="18" height="18" rx="4" fill="#e6f4df" stroke="#5f9d49" stroke-width="1.5"/>
<text x="400.0" y="1038.0" font-family="Segoe UI, Inter, Arial, sans-serif" font-size="14" font-weight="700" fill="#244c1f">reviewed truth</text>
<rect x="536.0" y="1023.0" width="18" height="18" rx="4" fill="#e8f0ff" stroke="#5f78c8" stroke-width="1.5"/>
<text x="564.0" y="1038.0" font-family="Segoe UI, Inter, Arial, sans-serif" font-size="14" font-weight="700" fill="#263967">runtime</text>
<rect x="696.0" y="1023.0" width="18" height="18" rx="4" fill="#f3e8ff" stroke="#8b5fbf" stroke-width="1.5"/>
<text x="724.0" y="1038.0" font-family="Segoe UI, Inter, Arial, sans-serif" font-size="14" font-weight="700" fill="#3f285e">integration</text>
<rect x="856.0" y="1023.0" width="18" height="18" rx="4" fill="#ffe6e3" stroke="#bb5b54" stroke-width="1.5"/>
<text x="884.0" y="1038.0" font-family="Segoe UI, Inter, Arial, sans-serif" font-size="14" font-weight="700" fill="#612823">governance</text>
</svg>
