<?xml version="1.0" encoding="UTF-8"?>
<svg xmlns="http://www.w3.org/2000/svg" width="2000" height="1100" viewBox="0 0 2000 1100" role="img" aria-label="MNO Architecture - Integration Contract">
<rect width="100%" height="100%" fill="#ffffff"/>
<text x="52" y="54" font-family="Segoe UI, Inter, Arial, sans-serif" font-size="30" font-weight="800" fill="#1e293b">MNO Architecture - Integration Contract</text>
<text x="52" y="86" font-family="Segoe UI, Inter, Arial, sans-serif" font-size="16" font-weight="500" fill="#64748b">Where desktop, HTTP, MCP, and compatibility adapters attach without becoming separate truth contracts.</text>
<rect x="50" y="125" width="315" height="700" rx="14" fill="#fffaf0" stroke="#d9a441" stroke-width="2"/>
<text x="70.0" y="159.0" font-family="Segoe UI, Inter, Arial, sans-serif" font-size="20" font-weight="800" fill="#5f3b05">Launchers And Clients</text>
<rect x="440" y="125" width="360" height="700" rx="14" fill="#faf4ff" stroke="#a889cc" stroke-width="2"/>
<text x="460.0" y="159.0" font-family="Segoe UI, Inter, Arial, sans-serif" font-size="20" font-weight="800" fill="#3f285e">Public Contract</text>
<rect x="875" y="125" width="360" height="700" rx="14" fill="#f1f6ff" stroke="#7b9bd6" stroke-width="2"/>
<text x="895.0" y="159.0" font-family="Segoe UI, Inter, Arial, sans-serif" font-size="20" font-weight="800" fill="#263967">Runtime Session</text>
<rect x="1310" y="125" width="300" height="700" rx="14" fill="#faf4ff" stroke="#a889cc" stroke-width="2"/>
<text x="1330.0" y="159.0" font-family="Segoe UI, Inter, Arial, sans-serif" font-size="20" font-weight="800" fill="#3f285e">Compatibility Layer</text>
<rect x="1675" y="125" width="280" height="700" rx="14" fill="#fff1ef" stroke="#c8756d" stroke-width="2"/>
<text x="1695.0" y="159.0" font-family="Segoe UI, Inter, Arial, sans-serif" font-size="20" font-weight="800" fill="#612823">Governed Outputs</text>
<line x1="415.0" y1="145.0" x2="415.0" y2="805.0" stroke="#8b5fbf" stroke-width="3" stroke-dasharray="10 8"/>
<rect x="420.0" y="779.0" width="158" height="24" rx="6" fill="#ffffff" fill-opacity="0.92"/>
<text x="425.0" y="797.0" font-family="Segoe UI, Inter, Arial, sans-serif" font-size="14" font-weight="800" fill="#8b5fbf">preferred public boundary</text>
<polyline points="330.0,216.0 353.0,216.0 353.0,259.0 376.0,259.0" fill="none" stroke="#8b5fbf" stroke-width="2.8" stroke-linecap="round" stroke-linejoin="round"/>
<polyline points="330.0,356.0 353.0,356.0 353.0,358.0 376.0,358.0" fill="none" stroke="#5f78c8" stroke-width="2.8" stroke-linecap="round" stroke-linejoin="round"/>
<polyline points="330.0,501.0 353.0,501.0 353.0,457.0 376.0,457.0" fill="none" stroke="#b97818" stroke-width="2.8" stroke-linecap="round" stroke-linejoin="round"/>
<polyline points="330.0,646.0 353.0,646.0 353.0,556.0 376.0,556.0" fill="none" stroke="#b97818" stroke-width="2.8" stroke-linecap="round" stroke-linejoin="round"/>
<polyline points="472.0,277.0 478.5,277.0 478.5,226.0 485.0,226.0" fill="none" stroke="#8b5fbf" stroke-width="2.8" stroke-linecap="round" stroke-linejoin="round"/>
<polyline points="472.0,380.5 478.5,380.5 478.5,356.0 485.0,356.0" fill="none" stroke="#4f83bd" stroke-width="2.8" stroke-linecap="round" stroke-linejoin="round"/>
<polyline points="472.0,479.5 478.5,479.5 478.5,486.0 485.0,486.0" fill="none" stroke="#bb5b54" stroke-width="2.8" stroke-linecap="round" stroke-linejoin="round"/>
<polyline points="472.0,583.0 478.5,583.0 478.5,616.0 485.0,616.0" fill="none" stroke="#687989" stroke-width="2.8" stroke-linecap="round" stroke-linejoin="round"/>
<polyline points="755.0,226.0 840.0,226.0 840.0,242.2 925.0,242.2" fill="none" stroke="#8b5fbf" stroke-width="2.8" stroke-linecap="round" stroke-linejoin="round"/>
<polyline points="755.0,356.0 840.0,356.0 840.0,418.2 925.0,418.2" fill="none" stroke="#4f83bd" stroke-width="2.8" stroke-linecap="round" stroke-linejoin="round"/>
<polyline points="755.0,486.0 840.0,486.0 840.0,625.0 925.0,625.0" fill="none" stroke="#bb5b54" stroke-width="2.8" stroke-linecap="round" stroke-linejoin="round"/>
<polyline points="755.0,616.0 840.0,616.0 840.0,585.0 925.0,585.0" fill="none" stroke="#687989" stroke-width="2.8" stroke-linecap="round" stroke-linejoin="round"/>
<polyline points="1055.0,302.0 1055.0,375.0" fill="none" stroke="#5f78c8" stroke-width="2.8" stroke-linecap="round" stroke-linejoin="round"/>
<polyline points="1055.0,471.0 1055.0,550.0" fill="none" stroke="#5f78c8" stroke-width="2.8" stroke-linecap="round" stroke-linejoin="round"/>
<polyline points="1350.0,255.8 1267.5,255.8 1267.5,246.8 1185.0,246.8" fill="none" stroke="#8b5fbf" stroke-width="2.8" stroke-linecap="round" stroke-linejoin="round"/>
<polyline points="1350.0,447.3 1265.0,447.0 1265.0,765.0 424.0,765.0 424.0,655.0" fill="none" stroke="#8b5fbf" stroke-width="2.8" stroke-linecap="round" stroke-linejoin="round" stroke-dasharray="8 8"/>
<polyline points="1185.0,251.4 1240.0,251.0 1240.0,106.0 1680.0,106.0 1680.0,276.0 1715.0,276.0" fill="none" stroke="#7869c6" stroke-width="2.8" stroke-linecap="round" stroke-linejoin="round"/>
<polyline points="1185.0,424.9 1240.0,425.0 1240.0,535.0 1680.0,535.0 1680.0,448.0 1715.0,448.0" fill="none" stroke="#8b5fbf" stroke-width="2.8" stroke-linecap="round" stroke-linejoin="round"/>
<polyline points="1185.0,615.0 1450.0,615.0 1450.0,621.0 1715.0,621.0" fill="none" stroke="#bb5b54" stroke-width="2.8" stroke-linecap="round" stroke-linejoin="round"/>
<rect x="85" y="175" width="245" height="82" rx="10" fill="#f3e8ff" stroke="#8b5fbf" stroke-width="2"/>
<g class="node-label"><text x="207.5" y="211.5" text-anchor="middle" font-family="Segoe UI, Inter, Arial, sans-serif" font-size="14" font-weight="500" fill="#1f2937">Desktop shell</text><text x="207.5" y="230.0" text-anchor="middle" font-family="Segoe UI, Inter, Arial, sans-serif" font-size="14" font-weight="500" fill="#1f2937">managed local operator surface</text></g>
<rect x="85" y="315" width="245" height="82" rx="10" fill="#e8f0ff" stroke="#5f78c8" stroke-width="2"/>
<g class="node-label"><text x="207.5" y="350.6" text-anchor="middle" font-family="Segoe UI, Inter, Arial, sans-serif" font-size="17" font-weight="500" fill="#1f2937">Headless launcher</text><text x="207.5" y="373.0" text-anchor="middle" font-family="Segoe UI, Inter, Arial, sans-serif" font-size="17" font-weight="500" fill="#1f2937">HTTP runtime process</text></g>
<rect x="85" y="455" width="245" height="92" rx="10" fill="#fff4db" stroke="#b97818" stroke-width="2"/>
<g class="node-label"><text x="207.5" y="487.3" text-anchor="middle" font-family="Segoe UI, Inter, Arial, sans-serif" font-size="14" font-weight="500" fill="#1f2937">setup_workspace</text><text x="207.5" y="505.8" text-anchor="middle" font-family="Segoe UI, Inter, Arial, sans-serif" font-size="14" font-weight="500" fill="#1f2937">install, import, launch, bundle</text><text x="207.5" y="524.2" text-anchor="middle" font-family="Segoe UI, Inter, Arial, sans-serif" font-size="14" font-weight="500" fill="#1f2937">export</text></g>
<rect x="85" y="605" width="245" height="82" rx="10" fill="#fff4db" stroke="#b97818" stroke-width="2"/>
<g class="node-label"><text x="207.5" y="640.6" text-anchor="middle" font-family="Segoe UI, Inter, Arial, sans-serif" font-size="17" font-weight="500" fill="#1f2937">Agent or app client</text><text x="207.5" y="663.0" text-anchor="middle" font-family="Segoe UI, Inter, Arial, sans-serif" font-size="17" font-weight="500" fill="#1f2937">orchestrator hot loop</text></g>
<rect x="376" y="205" width="96" height="450" rx="10" fill="#f8fafc" stroke="#64748b" stroke-width="2"/>
<g class="node-label"><text x="424.0" y="421.0" text-anchor="middle" font-family="Segoe UI, Inter, Arial, sans-serif" font-size="9" font-weight="700" fill="#1f2937">integration-v1</text><text x="424.0" y="433.0" text-anchor="middle" font-family="Segoe UI, Inter, Arial, sans-serif" font-size="9" font-weight="700" fill="#1f2937">contract</text><text x="424.0" y="445.0" text-anchor="middle" font-family="Segoe UI, Inter, Arial, sans-serif" font-size="9" font-weight="700" fill="#1f2937">bus</text></g>
<rect x="485" y="185" width="270" height="82" rx="10" fill="#f3e8ff" stroke="#8b5fbf" stroke-width="2"/>
<g class="node-label"><text x="620.0" y="221.5" text-anchor="middle" font-family="Segoe UI, Inter, Arial, sans-serif" font-size="14" font-weight="500" fill="#1f2937">Turn request</text><text x="620.0" y="240.0" text-anchor="middle" font-family="Segoe UI, Inter, Arial, sans-serif" font-size="14" font-weight="500" fill="#1f2937">input, mode, scope, memory policy</text></g>
<rect x="485" y="315" width="270" height="82" rx="10" fill="#e7f3ff" stroke="#4f83bd" stroke-width="2"/>
<g class="node-label"><text x="620.0" y="345.2" text-anchor="middle" font-family="Segoe UI, Inter, Arial, sans-serif" font-size="11" font-weight="500" fill="#1f2937">Context package</text><text x="620.0" y="359.7" text-anchor="middle" font-family="Segoe UI, Inter, Arial, sans-serif" font-size="11" font-weight="500" fill="#1f2937">bounded evidence plus strict active-scope</text><text x="620.0" y="374.3" text-anchor="middle" font-family="Segoe UI, Inter, Arial, sans-serif" font-size="11" font-weight="500" fill="#1f2937">scratchpad_ephemeral WSS</text></g>
<rect x="485" y="445" width="270" height="82" rx="10" fill="#ffe6e3" stroke="#bb5b54" stroke-width="2"/>
<g class="node-label"><text x="620.0" y="480.6" text-anchor="middle" font-family="Segoe UI, Inter, Arial, sans-serif" font-size="17" font-weight="500" fill="#1f2937">Memory propose/resolve</text><text x="620.0" y="503.0" text-anchor="middle" font-family="Segoe UI, Inter, Arial, sans-serif" font-size="17" font-weight="500" fill="#1f2937">explicit writeback path</text></g>
<rect x="485" y="575" width="270" height="82" rx="10" fill="#edf1f5" stroke="#687989" stroke-width="2"/>
<g class="node-label"><text x="620.0" y="610.9" text-anchor="middle" font-family="Segoe UI, Inter, Arial, sans-serif" font-size="16" font-weight="500" fill="#1f2937">Health and metadata</text><text x="620.0" y="632.0" text-anchor="middle" font-family="Segoe UI, Inter, Arial, sans-serif" font-size="16" font-weight="500" fill="#1f2937">capabilities, version, diagnostics</text></g>
<rect x="925" y="210" width="260" height="92" rx="10" fill="#e8f0ff" stroke="#5f78c8" stroke-width="2"/>
<g class="node-label"><text x="1055.0" y="250.9" text-anchor="middle" font-family="Segoe UI, Inter, Arial, sans-serif" font-size="16" font-weight="500" fill="#1f2937">RuntimeSession</text><text x="1055.0" y="272.0" text-anchor="middle" font-family="Segoe UI, Inter, Arial, sans-serif" font-size="16" font-weight="500" fill="#1f2937">main entry and orchestration</text></g>
<rect x="925" y="375" width="260" height="96" rx="10" fill="#e8f0ff" stroke="#5f78c8" stroke-width="2"/>
<g class="node-label"><text x="1055.0" y="408.3" text-anchor="middle" font-family="Segoe UI, Inter, Arial, sans-serif" font-size="15" font-weight="500" fill="#1f2937">Retrieval engine</text><text x="1055.0" y="428.1" text-anchor="middle" font-family="Segoe UI, Inter, Arial, sans-serif" font-size="15" font-weight="500" fill="#1f2937">memory fusion and evidence</text><text x="1055.0" y="447.9" text-anchor="middle" font-family="Segoe UI, Inter, Arial, sans-serif" font-size="15" font-weight="500" fill="#1f2937">assembly</text></g>
<rect x="925" y="550" width="260" height="100" rx="10" fill="#edf1f5" stroke="#687989" stroke-width="2"/>
<g class="node-label"><text x="1055.0" y="587.3" text-anchor="middle" font-family="Segoe UI, Inter, Arial, sans-serif" font-size="13" font-weight="500" fill="#1f2937">Local stores</text><text x="1055.0" y="604.4" text-anchor="middle" font-family="Segoe UI, Inter, Arial, sans-serif" font-size="13" font-weight="500" fill="#1f2937">atoms, reviewed cards, raw receipts,</text><text x="1055.0" y="621.6" text-anchor="middle" font-family="Segoe UI, Inter, Arial, sans-serif" font-size="13" font-weight="500" fill="#1f2937">WSS scratchpad_ephemeral sidecar</text></g>
<rect x="1350" y="225" width="220" height="88" rx="10" fill="#f3e8ff" stroke="#8b5fbf" stroke-width="2"/>
<g class="node-label"><text x="1460.0" y="256.3" text-anchor="middle" font-family="Segoe UI, Inter, Arial, sans-serif" font-size="13" font-weight="500" fill="#1f2937">MCP sidecar</text><text x="1460.0" y="273.4" text-anchor="middle" font-family="Segoe UI, Inter, Arial, sans-serif" font-size="13" font-weight="500" fill="#1f2937">stdio or HTTP over running</text><text x="1460.0" y="290.6" text-anchor="middle" font-family="Segoe UI, Inter, Arial, sans-serif" font-size="13" font-weight="500" fill="#1f2937">runtime</text></g>
<rect x="1350" y="405" width="220" height="94" rx="10" fill="#f3e8ff" stroke="#8b5fbf" stroke-width="2"/>
<g class="node-label"><text x="1460.0" y="438.3" text-anchor="middle" font-family="Segoe UI, Inter, Arial, sans-serif" font-size="14" font-weight="500" fill="#1f2937">Compatibility adapters</text><text x="1460.0" y="456.8" text-anchor="middle" font-family="Segoe UI, Inter, Arial, sans-serif" font-size="14" font-weight="500" fill="#1f2937">OpenClaw, Hermes,</text><text x="1460.0" y="475.2" text-anchor="middle" font-family="Segoe UI, Inter, Arial, sans-serif" font-size="14" font-weight="500" fill="#1f2937">Nanobot, generic</text></g>
<rect x="1715" y="230" width="205" height="92" rx="10" fill="#e9e6ff" stroke="#7869c6" stroke-width="2"/>
<g class="node-label"><text x="1817.5" y="271.5" text-anchor="middle" font-family="Segoe UI, Inter, Arial, sans-serif" font-size="14" font-weight="500" fill="#1f2937">Answer / abstain / clarify</text><text x="1817.5" y="290.0" text-anchor="middle" font-family="Segoe UI, Inter, Arial, sans-serif" font-size="14" font-weight="500" fill="#1f2937">same evidence envelope</text></g>
<rect x="1715" y="405" width="205" height="86" rx="10" fill="#f3e8ff" stroke="#8b5fbf" stroke-width="2"/>
<g class="node-label"><text x="1817.5" y="443.5" text-anchor="middle" font-family="Segoe UI, Inter, Arial, sans-serif" font-size="14" font-weight="500" fill="#1f2937">context.why</text><text x="1817.5" y="462.0" text-anchor="middle" font-family="Segoe UI, Inter, Arial, sans-serif" font-size="14" font-weight="500" fill="#1f2937">traceable IDs and citations</text></g>
<rect x="1715" y="575" width="205" height="92" rx="10" fill="#ffe6e3" stroke="#bb5b54" stroke-width="2"/>
<g class="node-label"><text x="1817.5" y="607.3" text-anchor="middle" font-family="Segoe UI, Inter, Arial, sans-serif" font-size="14" font-weight="500" fill="#1f2937">Proposal queue</text><text x="1817.5" y="625.8" text-anchor="middle" font-family="Segoe UI, Inter, Arial, sans-serif" font-size="14" font-weight="500" fill="#1f2937">operator resolve before</text><text x="1817.5" y="644.2" text-anchor="middle" font-family="Segoe UI, Inter, Arial, sans-serif" font-size="14" font-weight="500" fill="#1f2937">truth</text></g>
<rect x="585" y="870" width="920" height="78" rx="10" fill="#fffbe8" stroke="#d6a21f" stroke-width="2"/>
<g class="node-label"><text x="1045.0" y="904.5" text-anchor="middle" font-family="Segoe UI, Inter, Arial, sans-serif" font-size="14" font-weight="700" fill="#1f2937">Integration rule</text><text x="1045.0" y="923.0" text-anchor="middle" font-family="Segoe UI, Inter, Arial, sans-serif" font-size="14" font-weight="700" fill="#1f2937">New integrations should prefer integration-v1. WSS enters only through strict active-scope context packages, not a truth contract.</text></g>
<polygon points="376.0,259.0 365.2,264.3 365.2,253.7" fill="#8b5fbf"/>
<polygon points="376.0,358.0 365.2,363.3 365.2,352.7" fill="#5f78c8"/>
<polygon points="376.0,457.0 365.2,462.3 365.2,451.7" fill="#b97818"/>
<polygon points="376.0,556.0 365.2,561.3 365.2,550.7" fill="#b97818"/>
<polygon points="485.0,226.0 474.2,231.3 474.2,220.7" fill="#8b5fbf"/>
<polygon points="485.0,356.0 474.2,361.3 474.2,350.7" fill="#4f83bd"/>
<polygon points="485.0,486.0 474.2,491.3 474.2,480.7" fill="#bb5b54"/>
<polygon points="485.0,616.0 474.2,621.3 474.2,610.7" fill="#687989"/>
<polygon points="925.0,242.2 914.2,247.5 914.2,236.9" fill="#8b5fbf"/>
<polygon points="925.0,418.2 914.2,423.5 914.2,412.9" fill="#4f83bd"/>
<polygon points="925.0,625.0 914.2,630.3 914.2,619.7" fill="#bb5b54"/>
<polygon points="925.0,585.0 914.2,590.3 914.2,579.7" fill="#687989"/>
<polygon points="1055.0,375.0 1049.7,364.2 1060.3,364.2" fill="#5f78c8"/>
<polygon points="1055.0,550.0 1049.7,539.2 1060.3,539.2" fill="#5f78c8"/>
<polygon points="1185.0,246.8 1195.8,241.5 1195.8,252.1" fill="#8b5fbf"/>
<polygon points="424.0,655.0 429.3,665.8 418.7,665.8" fill="#8b5fbf"/>
<polygon points="1715.0,276.0 1704.2,281.3 1704.2,270.7" fill="#7869c6"/>
<polygon points="1715.0,448.0 1704.2,453.3 1704.2,442.7" fill="#8b5fbf"/>
<polygon points="1715.0,621.0 1704.2,626.3 1704.2,615.7" fill="#bb5b54"/>
<rect x="52.0" y="1023.0" width="18" height="18" rx="4" fill="#fff4db" stroke="#b97818" stroke-width="1.5"/>
<text x="80.0" y="1038.0" font-family="Segoe UI, Inter, Arial, sans-serif" font-size="14" font-weight="700" fill="#5f3b05">source</text>
<rect x="212.0" y="1023.0" width="18" height="18" rx="4" fill="#e7f3ff" stroke="#4f83bd" stroke-width="1.5"/>
<text x="240.0" y="1038.0" font-family="Segoe UI, Inter, Arial, sans-serif" font-size="14" font-weight="700" fill="#213f5f">evidence</text>
<rect x="372.0" y="1023.0" width="18" height="18" rx="4" fill="#e6f4df" stroke="#5f9d49" stroke-width="1.5"/>
<text x="400.0" y="1038.0" font-family="Segoe UI, Inter, Arial, sans-serif" font-size="14" font-weight="700" fill="#244c1f">reviewed truth</text>
<rect x="536.0" y="1023.0" width="18" height="18" rx="4" fill="#e8f0ff" stroke="#5f78c8" stroke-width="1.5"/>
<text x="564.0" y="1038.0" font-family="Segoe UI, Inter, Arial, sans-serif" font-size="14" font-weight="700" fill="#263967">runtime</text>
<rect x="696.0" y="1023.0" width="18" height="18" rx="4" fill="#f3e8ff" stroke="#8b5fbf" stroke-width="1.5"/>
<text x="724.0" y="1038.0" font-family="Segoe UI, Inter, Arial, sans-serif" font-size="14" font-weight="700" fill="#3f285e">integration</text>
<rect x="856.0" y="1023.0" width="18" height="18" rx="4" fill="#ffe6e3" stroke="#bb5b54" stroke-width="1.5"/>
<text x="884.0" y="1038.0" font-family="Segoe UI, Inter, Arial, sans-serif" font-size="14" font-weight="700" fill="#612823">governance</text>
</svg>
