<?xml version="1.0" encoding="UTF-8"?>
<svg xmlns="http://www.w3.org/2000/svg" width="1520" height="900" viewBox="0 0 1520 900" role="img" aria-label="Runtime And Integration Flow">
<rect width="100%" height="100%" fill="#ffffff"/>
<text x="48" y="56" font-family="Segoe UI, Inter, Arial, sans-serif" font-size="28" font-weight="800" fill="#243b53">Runtime And Integration Flow</text>
<rect x="50" y="90" width="350" height="620" rx="10" fill="#fbf7f1" fill-opacity="0.58" stroke="#d9b37a" stroke-width="2"/>
<text x="72" y="128" font-family="Segoe UI, Inter, Arial, sans-serif" font-size="21" font-weight="800" fill="#243b53">Entry</text>
<rect x="460" y="90" width="520" height="620" rx="10" fill="#eef6fd" fill-opacity="0.58" stroke="#86a8cf" stroke-width="2"/>
<text x="482" y="128" font-family="Segoe UI, Inter, Arial, sans-serif" font-size="21" font-weight="800" fill="#243b53">Runtime Core</text>
<rect x="1040" y="90" width="430" height="620" rx="10" fill="#f5effb" fill-opacity="0.58" stroke="#b39ad0" stroke-width="2"/>
<text x="1062" y="128" font-family="Segoe UI, Inter, Arial, sans-serif" font-size="21" font-weight="800" fill="#243b53">Outputs</text>
<polyline points="355.0,260.0 432.5,260.0 432.5,195.0 510.0,195.0" fill="none" stroke="#d6b656" stroke-width="2.6" stroke-linecap="round" stroke-linejoin="round"/>
<polyline points="720.0,240.0 720.0,270.0 720.0,270.0 720.0,300.0" fill="none" stroke="#6c8ebf" stroke-width="2.6" stroke-linecap="round" stroke-linejoin="round"/>
<polyline points="720.0,430.0 720.0,465.0 720.0,465.0 720.0,500.0" fill="none" stroke="#82b366" stroke-width="2.6" stroke-linecap="round" stroke-linejoin="round"/>
<polyline points="930.0,560.0 1007.5,560.0 1007.5,235.0 1085.0,235.0" fill="none" stroke="#6c8ebf" stroke-width="2.6" stroke-linecap="round" stroke-linejoin="round"/>
<polyline points="930.0,560.0 1007.5,560.0 1007.5,410.0 1085.0,410.0" fill="none" stroke="#9673b9" stroke-width="2.6" stroke-linecap="round" stroke-linejoin="round"/>
<polyline points="930.0,560.0 1007.5,560.0 1007.5,595.0 1085.0,595.0" fill="none" stroke="#b85450" stroke-width="2.6" stroke-linecap="round" stroke-linejoin="round"/>
<rect x="95" y="210" width="260" height="100" rx="9" fill="#fff2cc" stroke="#d6b656" stroke-width="2"/>
<text x="225.0" y="255.7" text-anchor="middle" font-family="Segoe UI, Inter, Arial, sans-serif" font-size="18" font-weight="500" fill="#1f2933"><tspan x="225.0" dy="0.0">Desktop / integration-v1 /</tspan><tspan x="225.0" dy="22.3">MCP / adapters</tspan></text>
<rect x="510" y="150" width="420" height="90" rx="9" fill="#dae8fc" stroke="#6c8ebf" stroke-width="2"/>
<text x="720.0" y="201.8" text-anchor="middle" font-family="Segoe UI, Inter, Arial, sans-serif" font-size="18" font-weight="500" fill="#1f2933"><tspan x="720.0" dy="0.0">Router + query shaping</tspan></text>
<rect x="510" y="300" width="420" height="130" rx="9" fill="#d5e8d4" stroke="#82b366" stroke-width="2"/>
<text x="720.0" y="349.5" text-anchor="middle" font-family="Segoe UI, Inter, Arial, sans-serif" font-size="18" font-weight="500" fill="#1f2933"><tspan x="720.0" dy="0.0">Memory candidate pool</tspan><tspan x="720.0" dy="22.3">reviewed canonical + evidence atoms +</tspan><tspan x="720.0" dy="22.3">provisional + ANN; STM/WSS are not evidence</tspan></text>
<rect x="510" y="500" width="420" height="120" rx="9" fill="#dae8fc" stroke="#6c8ebf" stroke-width="2"/>
<text x="720.0" y="544.5" text-anchor="middle" font-family="Segoe UI, Inter, Arial, sans-serif" font-size="18" font-weight="500" fill="#1f2933"><tspan x="720.0" dy="0.0">Context package + verifier</tspan><tspan x="720.0" dy="22.3">bounded evidence; WSS scratchpad_ephemeral</tspan><tspan x="720.0" dy="22.3">by strict active scope</tspan></text>
<rect x="1085" y="180" width="340" height="110" rx="9" fill="#fce5f1" stroke="#b8549e" stroke-width="2"/>
<text x="1255.0" y="230.7" text-anchor="middle" font-family="Segoe UI, Inter, Arial, sans-serif" font-size="18" font-weight="500" fill="#1f2933"><tspan x="1255.0" dy="0.0">Answer / abstain / clarify</tspan><tspan x="1255.0" dy="22.3">with evidence metadata</tspan></text>
<rect x="1085" y="360" width="340" height="100" rx="9" fill="#eadcf8" stroke="#9673b9" stroke-width="2"/>
<text x="1255.0" y="405.7" text-anchor="middle" font-family="Segoe UI, Inter, Arial, sans-serif" font-size="18" font-weight="500" fill="#1f2933"><tspan x="1255.0" dy="0.0">context.why</tspan><tspan x="1255.0" dy="22.3">explain evidence IDs and citations</tspan></text>
<rect x="1085" y="540" width="340" height="110" rx="9" fill="#f8cecc" stroke="#b85450" stroke-width="2"/>
<text x="1255.0" y="569.8" text-anchor="middle" font-family="Segoe UI, Inter, Arial, sans-serif" font-size="17" font-weight="500" fill="#1f2933"><tspan x="1255.0" dy="0.0">Remember-this writeback</tspan><tspan x="1255.0" dy="21.1">review_apply: create/edit → evidence;</tspan><tspan x="1255.0" dy="21.1">delete → tombstone; neither makes</tspan><tspan x="1255.0" dy="21.1">canonical truth</tspan></text>
<rect x="260" y="760" width="1000" height="96" rx="9" fill="#f8cecc" stroke="#b85450" stroke-width="2"/>
<text x="760.0" y="803.7" text-anchor="middle" font-family="Segoe UI, Inter, Arial, sans-serif" font-size="18" font-weight="500" fill="#1f2933"><tspan x="760.0" dy="0.0">Integration rule</tspan><tspan x="760.0" dy="22.3">context.build is read-only; memory.observe needs signed registration/receipt; WSS is work continuity, not evidence</tspan></text>
<polygon points="510.0,195.0 499.2,200.3 499.2,189.7" fill="#d6b656"/>
<polygon points="720.0,300.0 714.7,289.2 725.3,289.2" fill="#6c8ebf"/>
<polygon points="720.0,500.0 714.7,489.2 725.3,489.2" fill="#82b366"/>
<polygon points="1085.0,235.0 1074.2,240.3 1074.2,229.7" fill="#6c8ebf"/>
<polygon points="1085.0,410.0 1074.2,415.3 1074.2,404.7" fill="#9673b9"/>
<polygon points="1085.0,595.0 1074.2,600.3 1074.2,589.7" fill="#b85450"/>
</svg>
