<?xml version="1.0" encoding="UTF-8"?>
<svg xmlns="http://www.w3.org/2000/svg" width="1480" height="920" viewBox="0 0 1480 920" role="img" aria-label="Runtime Memory And Decision Flow">
<rect width="100%" height="100%" fill="#ffffff"/>
<text x="48" y="56" font-family="Segoe UI, Inter, Arial, sans-serif" font-size="28" font-weight="800" fill="#243b53">Runtime Memory And Decision Flow</text>
<polyline points="280.0,225.0 315.0,225.0 315.0,225.0 350.0,225.0" fill="none" stroke="#d6b656" stroke-width="2.6" stroke-linecap="round" stroke-linejoin="round"/>
<polyline points="600.0,225.0 640.0,225.0 640.0,215.0 680.0,215.0" fill="none" stroke="#6c8ebf" stroke-width="2.6" stroke-linecap="round" stroke-linejoin="round"/>
<polyline points="1010.0,215.0 1050.0,215.0 1050.0,215.0 1090.0,215.0" fill="none" stroke="#82b366" stroke-width="2.6" stroke-linecap="round" stroke-linejoin="round"/>
<polyline points="1250.0,270.0 1250.0,325.0 1250.0,325.0 1250.0,380.0" fill="none" stroke="#6c8ebf" stroke-width="2.6" stroke-linecap="round" stroke-linejoin="round"/>
<polyline points="1090.0,430.0 1050.0,430.0 1050.0,440.0 1010.0,440.0" fill="none" stroke="#6c8ebf" stroke-width="2.6" stroke-linecap="round" stroke-linejoin="round"/>
<polyline points="680.0,440.0 640.0,440.0 640.0,440.0 600.0,440.0" fill="none" stroke="#6c8ebf" stroke-width="2.6" stroke-linecap="round" stroke-linejoin="round"/>
<polyline points="845.0,490.0 845.0,550.0 845.0,550.0 845.0,610.0" fill="none" stroke="#b85450" stroke-width="2.6" stroke-linecap="round" stroke-linejoin="round"/>
<rect x="60" y="180" width="220" height="90" rx="9" fill="#fff2cc" stroke="#d6b656" stroke-width="2"/>
<text x="170.0" y="231.8" text-anchor="middle" font-family="Segoe UI, Inter, Arial, sans-serif" font-size="18" font-weight="500" fill="#1f2933"><tspan x="170.0" dy="0.0">Incoming turn</tspan></text>
<rect x="350" y="180" width="250" height="90" rx="9" fill="#dae8fc" stroke="#6c8ebf" stroke-width="2"/>
<text x="475.0" y="231.8" text-anchor="middle" font-family="Segoe UI, Inter, Arial, sans-serif" font-size="18" font-weight="500" fill="#1f2933"><tspan x="475.0" dy="0.0">Route + query shape</tspan></text>
<rect x="680" y="150" width="330" height="130" rx="9" fill="#d5e8d4" stroke="#82b366" stroke-width="2"/>
<text x="845.0" y="199.5" text-anchor="middle" font-family="Segoe UI, Inter, Arial, sans-serif" font-size="18" font-weight="500" fill="#1f2933"><tspan x="845.0" dy="0.0">Retrieve candidates</tspan><tspan x="845.0" dy="22.3">STM, reviewed cards, atoms, ANN</tspan><tspan x="845.0" dy="22.3">helper, raw context if asked</tspan></text>
<rect x="1090" y="160" width="320" height="110" rx="9" fill="#dae8fc" stroke="#6c8ebf" stroke-width="2"/>
<text x="1250.0" y="210.7" text-anchor="middle" font-family="Segoe UI, Inter, Arial, sans-serif" font-size="18" font-weight="500" fill="#1f2933"><tspan x="1250.0" dy="0.0">Fusion + guarded shortlist</tspan><tspan x="1250.0" dy="22.3">rank, dedupe, support checks</tspan></text>
<rect x="1090" y="380" width="320" height="100" rx="9" fill="#dae8fc" stroke="#6c8ebf" stroke-width="2"/>
<text x="1250.0" y="407.8" text-anchor="middle" font-family="Segoe UI, Inter, Arial, sans-serif" font-size="15" font-weight="500" fill="#1f2933"><tspan x="1250.0" dy="0.0">Context package</tspan><tspan x="1250.0" dy="18.6">bounded evidence; WSS</tspan><tspan x="1250.0" dy="18.6">scratchpad_ephemeral by strict active</tspan><tspan x="1250.0" dy="18.6">scope</tspan></text>
<rect x="680" y="390" width="330" height="100" rx="9" fill="#dae8fc" stroke="#6c8ebf" stroke-width="2"/>
<text x="845.0" y="435.7" text-anchor="middle" font-family="Segoe UI, Inter, Arial, sans-serif" font-size="18" font-weight="500" fill="#1f2933"><tspan x="845.0" dy="0.0">Verifier</tspan><tspan x="845.0" dy="22.3">PASS / ABSTAIN / CLARIFY</tspan></text>
<rect x="350" y="390" width="250" height="100" rx="9" fill="#fce5f1" stroke="#b8549e" stroke-width="2"/>
<text x="475.0" y="424.5" text-anchor="middle" font-family="Segoe UI, Inter, Arial, sans-serif" font-size="18" font-weight="500" fill="#1f2933"><tspan x="475.0" dy="0.0">Final output</tspan><tspan x="475.0" dy="22.3">answer text + evidence</tspan><tspan x="475.0" dy="22.3">metadata</tspan></text>
<rect x="680" y="610" width="330" height="100" rx="9" fill="#f8cecc" stroke="#b85450" stroke-width="2"/>
<text x="845.0" y="655.7" text-anchor="middle" font-family="Segoe UI, Inter, Arial, sans-serif" font-size="18" font-weight="500" fill="#1f2933"><tspan x="845.0" dy="0.0">Risky new memory</tspan><tspan x="845.0" dy="22.3">proposal-only writeback</tspan></text>
<rect x="310" y="780" width="860" height="92" rx="9" fill="#f8cecc" stroke="#b85450" stroke-width="2"/>
<text x="740.0" y="821.7" text-anchor="middle" font-family="Segoe UI, Inter, Arial, sans-serif" font-size="18" font-weight="500" fill="#1f2933"><tspan x="740.0" dy="0.0">Decision rule</tspan><tspan x="740.0" dy="22.3">retrieval success is not truth authority; WSS helps work continuity, not memory proof</tspan></text>
<polygon points="350.0,225.0 339.2,230.3 339.2,219.7" fill="#d6b656"/>
<polygon points="680.0,215.0 669.2,220.3 669.2,209.7" fill="#6c8ebf"/>
<polygon points="1090.0,215.0 1079.2,220.3 1079.2,209.7" fill="#82b366"/>
<polygon points="1250.0,380.0 1244.7,369.2 1255.3,369.2" fill="#6c8ebf"/>
<polygon points="1010.0,440.0 1020.8,434.7 1020.8,445.3" fill="#6c8ebf"/>
<polygon points="600.0,440.0 610.8,434.7 610.8,445.3" fill="#6c8ebf"/>
<polygon points="845.0,610.0 839.7,599.2 850.3,599.2" fill="#b85450"/>
</svg>
