<?xml version="1.0" encoding="UTF-8"?>
<svg xmlns="http://www.w3.org/2000/svg" width="1720" height="980" viewBox="0 0 1720 980" role="img" aria-label="Current Pipeline, Clean View">
<rect width="100%" height="100%" fill="#ffffff"/>
<text x="48" y="56" font-family="Segoe UI, Inter, Arial, sans-serif" font-size="28" font-weight="800" fill="#243b53">Current Pipeline, Clean View</text>
<rect x="50" y="90" width="360" height="700" rx="10" fill="#fbf7f1" fill-opacity="0.58" stroke="#d9b37a" stroke-width="2"/>
<text x="72" y="128" font-family="Segoe UI, Inter, Arial, sans-serif" font-size="21" font-weight="800" fill="#243b53">Source Intake</text>
<rect x="470" y="90" width="360" height="700" rx="10" fill="#f2f8ef" fill-opacity="0.58" stroke="#8eb184" stroke-width="2"/>
<text x="492" y="128" font-family="Segoe UI, Inter, Arial, sans-serif" font-size="21" font-weight="800" fill="#243b53">Truth Build</text>
<rect x="890" y="90" width="360" height="700" rx="10" fill="#eef6fd" fill-opacity="0.58" stroke="#86a8cf" stroke-width="2"/>
<text x="912" y="128" font-family="Segoe UI, Inter, Arial, sans-serif" font-size="21" font-weight="800" fill="#243b53">Runtime</text>
<rect x="1310" y="90" width="360" height="700" rx="10" fill="#f5effb" fill-opacity="0.58" stroke="#b39ad0" stroke-width="2"/>
<text x="1332" y="128" font-family="Segoe UI, Inter, Arial, sans-serif" font-size="21" font-weight="800" fill="#243b53">Integration</text>
<polyline points="230.0,280.0 230.0,320.0 230.0,320.0 230.0,360.0" fill="none" stroke="#d6b656" stroke-width="2.6" stroke-linecap="round" stroke-linejoin="round"/>
<polyline points="230.0,470.0 230.0,510.0 230.0,510.0 230.0,550.0" fill="none" stroke="#c97b63" stroke-width="2.6" stroke-linecap="round" stroke-linejoin="round"/>
<polyline points="370.0,415.0 440.0,415.0 440.0,235.0 510.0,235.0" fill="none" stroke="#c97b63" stroke-width="2.6" stroke-linecap="round" stroke-linejoin="round"/>
<polyline points="650.0,290.0 650.0,340.0 650.0,340.0 650.0,390.0" fill="none" stroke="#b8549e" stroke-width="2.6" stroke-linecap="round" stroke-linejoin="round"/>
<polyline points="790.0,450.0 860.0,450.0 860.0,270.0 930.0,270.0" fill="none" stroke="#82b366" stroke-width="2.6" stroke-linecap="round" stroke-linejoin="round"/>
<polyline points="370.0,610.0 650.0,610.0 650.0,270.0 930.0,270.0" fill="none" stroke="#c97b63" stroke-width="2.6" stroke-linecap="round" stroke-linejoin="round"/>
<polyline points="1070.0,330.0 1070.0,390.0 1070.0,390.0 1070.0,450.0" fill="none" stroke="#6c8ebf" stroke-width="2.6" stroke-linecap="round" stroke-linejoin="round"/>
<polyline points="1210.0,510.0 1280.0,510.0 1280.0,375.0 1350.0,375.0" fill="none" stroke="#9673b9" stroke-width="2.6" stroke-linecap="round" stroke-linejoin="round"/>
<rect x="90" y="180" width="280" height="100" rx="9" fill="#fff2cc" stroke="#d6b656" stroke-width="2"/>
<text x="230.0" y="225.7" text-anchor="middle" font-family="Segoe UI, Inter, Arial, sans-serif" font-size="18" font-weight="500" fill="#1f2933"><tspan x="230.0" dy="0.0">Files / folders / conversation</tspan><tspan x="230.0" dy="22.3">exports / existing store</tspan></text>
<rect x="90" y="360" width="280" height="110" rx="9" fill="#fde9d9" stroke="#c97b63" stroke-width="2"/>
<text x="230.0" y="399.5" text-anchor="middle" font-family="Segoe UI, Inter, Arial, sans-serif" font-size="18" font-weight="500" fill="#1f2933"><tspan x="230.0" dy="0.0">Atom store</tspan><tspan x="230.0" dy="22.3">small evidence pieces with</tspan><tspan x="230.0" dy="22.3">provenance</tspan></text>
<rect x="90" y="550" width="280" height="120" rx="9" fill="#fde9d9" stroke="#c97b63" stroke-width="2"/>
<text x="230.0" y="594.5" text-anchor="middle" font-family="Segoe UI, Inter, Arial, sans-serif" font-size="18" font-weight="500" fill="#1f2933"><tspan x="230.0" dy="0.0">Raw-context receipt lane</tspan><tspan x="230.0" dy="22.3">original wording support, not</tspan><tspan x="230.0" dy="22.3">truth authority</tspan></text>
<rect x="510" y="180" width="280" height="110" rx="9" fill="#fce5f1" stroke="#b8549e" stroke-width="2"/>
<text x="650.0" y="230.7" text-anchor="middle" font-family="Segoe UI, Inter, Arial, sans-serif" font-size="18" font-weight="500" fill="#1f2933"><tspan x="650.0" dy="0.0">Draft episode cards</tspan><tspan x="650.0" dy="22.3">agent curation stays draft-only</tspan></text>
<rect x="510" y="390" width="280" height="120" rx="9" fill="#d5e8d4" stroke="#82b366" stroke-width="2"/>
<text x="650.0" y="445.7" text-anchor="middle" font-family="Segoe UI, Inter, Arial, sans-serif" font-size="18" font-weight="500" fill="#1f2933"><tspan x="650.0" dy="0.0">Human-reviewed cards</tspan><tspan x="650.0" dy="22.3">current/superseded lineage</tspan></text>
<rect x="930" y="210" width="280" height="120" rx="9" fill="#dae8fc" stroke="#6c8ebf" stroke-width="2"/>
<text x="1070.0" y="254.5" text-anchor="middle" font-family="Segoe UI, Inter, Arial, sans-serif" font-size="18" font-weight="500" fill="#1f2933"><tspan x="1070.0" dy="0.0">Runtime retrieval</tspan><tspan x="1070.0" dy="22.3">reviewed cards + atoms +</tspan><tspan x="1070.0" dy="22.3">helper layers</tspan></text>
<rect x="930" y="450" width="280" height="120" rx="9" fill="#dae8fc" stroke="#6c8ebf" stroke-width="2"/>
<text x="1070.0" y="494.5" text-anchor="middle" font-family="Segoe UI, Inter, Arial, sans-serif" font-size="18" font-weight="500" fill="#1f2933"><tspan x="1070.0" dy="0.0">Context package + verifier</tspan><tspan x="1070.0" dy="22.3">strict-scope WSS; answer,</tspan><tspan x="1070.0" dy="22.3">abstain, or clarify</tspan></text>
<rect x="1350" y="300" width="280" height="150" rx="9" fill="#eadcf8" stroke="#9673b9" stroke-width="2"/>
<text x="1490.0" y="359.5" text-anchor="middle" font-family="Segoe UI, Inter, Arial, sans-serif" font-size="18" font-weight="500" fill="#1f2933"><tspan x="1490.0" dy="0.0">integration-v1 / MCP / desktop</tspan><tspan x="1490.0" dy="22.3">bounded package + writeback</tspan><tspan x="1490.0" dy="22.3">proposals</tspan></text>
<rect x="390" y="840" width="950" height="100" rx="9" fill="#f8cecc" stroke="#b85450" stroke-width="2"/>
<text x="865.0" y="885.7" text-anchor="middle" font-family="Segoe UI, Inter, Arial, sans-serif" font-size="18" font-weight="500" fill="#1f2933"><tspan x="865.0" dy="0.0">Truth boundary</tspan><tspan x="865.0" dy="22.3">drafts, helper memory, scratchpad_ephemeral WSS, and raw wording receipts do not become trusted truth</tspan></text>
<polygon points="230.0,360.0 224.7,349.2 235.3,349.2" fill="#d6b656"/>
<polygon points="230.0,550.0 224.7,539.2 235.3,539.2" fill="#c97b63"/>
<polygon points="510.0,235.0 499.2,240.3 499.2,229.7" fill="#c97b63"/>
<polygon points="650.0,390.0 644.7,379.2 655.3,379.2" fill="#b8549e"/>
<polygon points="930.0,270.0 919.2,275.3 919.2,264.7" fill="#82b366"/>
<polygon points="930.0,270.0 919.2,275.3 919.2,264.7" fill="#c97b63"/>
<polygon points="1070.0,450.0 1064.7,439.2 1075.3,439.2" fill="#6c8ebf"/>
<polygon points="1350.0,375.0 1339.2,380.3 1339.2,369.7" fill="#9673b9"/>
</svg>
