<?xml version="1.0" encoding="UTF-8"?>
<svg xmlns="http://www.w3.org/2000/svg" width="2032" height="927" viewBox="0 0 2032 927" role="img" aria-label="Engineering Runtime Memory Layers">
<rect width="100%" height="100%" fill="#ffffff"/>
<rect x="42.0" y="42.0" width="430.0" height="682.7" rx="8" fill="#f8f1e7" fill-opacity="0.48" stroke="#c58b3a" stroke-width="2"/>
<text x="58.0" y="69.0" font-family="Segoe UI, Inter, Arial, sans-serif" font-size="17" font-weight="700" fill="#243b53">Request-Local And Short-Term</text>
<rect x="548.0" y="42.0" width="430.0" height="682.7" rx="8" fill="#eef6ea" fill-opacity="0.48" stroke="#6a9b58" stroke-width="2"/>
<text x="564.0" y="69.0" font-family="Segoe UI, Inter, Arial, sans-serif" font-size="17" font-weight="700" fill="#243b53">Runtime Helper Layers</text>
<rect x="1054.0" y="42.0" width="430.0" height="682.7" rx="8" fill="#eaf3fb" fill-opacity="0.48" stroke="#4d7fb3" stroke-width="2"/>
<text x="1070.0" y="69.0" font-family="Segoe UI, Inter, Arial, sans-serif" font-size="17" font-weight="700" fill="#243b53">Durable Reviewed / Canonical</text>
<rect x="1560.0" y="42.0" width="430.0" height="682.7" rx="8" fill="#f4eafa" fill-opacity="0.48" stroke="#8b63b6" stroke-width="2"/>
<text x="1576.0" y="69.0" font-family="Segoe UI, Inter, Arial, sans-serif" font-size="17" font-weight="700" fill="#243b53">Governed Control Surfaces</text>
<polyline points="257.0,207.8 257.0,235.8 256.0,240.0 256.0,368.0 257.0,361.5 257.0,333.5" fill="none" stroke="#d6b656" stroke-width="2.4" stroke-linejoin="round" stroke-linecap="round"/>
<polyline points="763.0,226.6 763.0,254.6 768.0,240.0 960.0,240.0 960.0,512.0 768.0,512.0 763.0,525.0 763.0,497.0" fill="none" stroke="#6a9b58" stroke-width="2.4" stroke-linejoin="round" stroke-linecap="round"/>
<polyline points="1269.0,207.8 1269.0,235.8 1264.0,240.0 1264.0,352.0 1216.0,352.0 1219.3,361.5 1219.3,333.5" fill="none" stroke="#4d7fb3" stroke-width="2.4" stroke-linejoin="round" stroke-linecap="round"/>
<polyline points="1318.7,333.5 1318.7,361.5 1312.0,368.0 1312.0,496.0 1264.0,496.0 1269.0,506.2 1269.0,478.2" fill="none" stroke="#4d7fb3" stroke-width="2.4" stroke-linejoin="round" stroke-linecap="round"/>
<polyline points="934.0,175.3 962.0,175.3 960.0,176.0 960.0,96.0 1968.0,96.0 1968.0,176.0 1974.0,175.3 1946.0,175.3" fill="none" stroke="#6a9b58" stroke-width="2.4" stroke-linejoin="round" stroke-linecap="round"/>
<polyline points="934.0,590.4 962.0,590.4 960.0,592.0 1072.0,592.0 1072.0,160.0 1472.0,160.0 1468.0,165.9 1440.0,165.9" fill="none" stroke="#6a9b58" stroke-width="2.4" stroke-linejoin="round" stroke-linecap="round"/>
<polyline points="1269.0,375.5 1269.0,347.5 1264.0,352.0 1264.0,240.0 1269.0,221.8 1269.0,249.8" fill="none" stroke="#4d7fb3" stroke-width="2.4" stroke-linejoin="round" stroke-linecap="round"/>
<rect x="86.0" y="124.0" width="342.0" height="83.8" rx="12" fill="#fff2cc" stroke="#d6b656" stroke-width="2"/>
<text text-anchor="middle" font-family="Segoe UI, Inter, Arial, sans-serif" font-size="14" font-weight="500" fill="#1f2933" x="257.0" y="163.4"><tspan x="257.0" dy="0.0">Immediate context</tspan><tspan x="257.0" dy="16.5">current request, surface, and turn-local state</tspan></text>
<rect x="86.0" y="249.8" width="342.0" height="83.8" rx="12" fill="#fff2cc" stroke="#d6b656" stroke-width="2"/>
<text text-anchor="middle" font-family="Segoe UI, Inter, Arial, sans-serif" font-size="14" font-weight="500" fill="#1f2933" x="257.0" y="289.1"><tspan x="257.0" dy="0.0">STM / session state</tspan><tspan x="257.0" dy="16.5">recent turns, rolling summary, soft-close hints</tspan></text>
<rect x="592.0" y="124.0" width="342.0" height="102.6" rx="12" fill="#f7fff3" stroke="#6a9b58" stroke-width="2"/>
<text text-anchor="middle" font-family="Segoe UI, Inter, Arial, sans-serif" font-size="14" font-weight="500" fill="#1f2933" x="763.0" y="164.5"><tspan x="763.0" dy="0.0">Runtime helper memory</tspan><tspan x="763.0" dy="16.5">provisional + strict-scope scratchpad_ephemeral</tspan><tspan x="763.0" dy="16.5">WSS</tspan></text>
<rect x="592.0" y="268.6" width="342.0" height="102.6" rx="12" fill="#f7fff3" stroke="#6a9b58" stroke-width="2"/>
<text text-anchor="middle" font-family="Segoe UI, Inter, Arial, sans-serif" font-size="14" font-weight="500" fill="#1f2933" x="763.0" y="309.2"><tspan x="763.0" dy="0.0">Proposal-only store</tspan><tspan x="763.0" dy="16.5">high-risk captures that must not auto-enter</tspan><tspan x="763.0" dy="16.5">retrievable truth</tspan></text>
<rect x="592.0" y="413.3" width="342.0" height="83.8" rx="12" fill="#f7fff3" stroke="#6a9b58" stroke-width="2"/>
<text text-anchor="middle" font-family="Segoe UI, Inter, Arial, sans-serif" font-size="14" font-weight="500" fill="#1f2933" x="763.0" y="452.6"><tspan x="763.0" dy="0.0">Continuity surfaces</tspan><tspan x="763.0" dy="16.5">pins, action log, wake-up pack, resume pack</tspan></text>
<rect x="592.0" y="539.0" width="342.0" height="102.6" rx="12" fill="#f7fff3" stroke="#6a9b58" stroke-width="2"/>
<text text-anchor="middle" font-family="Segoe UI, Inter, Arial, sans-serif" font-size="14" font-weight="500" fill="#1f2933" x="763.0" y="579.6"><tspan x="763.0" dy="0.0">Raw-context sidecar</tspan><tspan x="763.0" dy="16.5">read-only source wording slices for</tspan><tspan x="763.0" dy="16.5">quote/provenance recall</tspan></text>
<rect x="1098.0" y="124.0" width="342.0" height="83.8" rx="12" fill="#eef7ff" stroke="#4d7fb3" stroke-width="2"/>
<text text-anchor="middle" font-family="Segoe UI, Inter, Arial, sans-serif" font-size="14" font-weight="500" fill="#1f2933" x="1269.0" y="163.4"><tspan x="1269.0" dy="0.0">Canonical atom store</tspan><tspan x="1269.0" dy="16.5">evidence-backed durable substrate</tspan></text>
<rect x="1098.0" y="249.8" width="342.0" height="83.8" rx="12" fill="#eef7ff" stroke="#4d7fb3" stroke-width="2"/>
<text text-anchor="middle" font-family="Segoe UI, Inter, Arial, sans-serif" font-size="14" font-weight="500" fill="#1f2933" x="1269.0" y="289.1"><tspan x="1269.0" dy="0.0">Reviewed episode cards</tspan><tspan x="1269.0" dy="16.5">trusted event memory</tspan></text>
<rect x="1098.0" y="375.5" width="342.0" height="102.6" rx="12" fill="#eef7ff" stroke="#4d7fb3" stroke-width="2"/>
<text text-anchor="middle" font-family="Segoe UI, Inter, Arial, sans-serif" font-size="14" font-weight="500" fill="#1f2933" x="1269.0" y="416.1"><tspan x="1269.0" dy="0.0">Reviewed truth lineage</tspan><tspan x="1269.0" dy="16.5">truth_family_id, supersedes, superseded_by,</tspan><tspan x="1269.0" dy="16.5">current flag</tspan></text>
<rect x="1098.0" y="520.2" width="342.0" height="121.5" rx="12" fill="#f8cecc" stroke="#b85450" stroke-width="2"/>
<text text-anchor="middle" font-family="Segoe UI, Inter, Arial, sans-serif" font-size="14" font-weight="500" fill="#1f2933" x="1269.0" y="561.9"><tspan x="1269.0" dy="0.0">Runtime trust rules</tspan><tspan x="1269.0" dy="16.5">reviewed truth &gt; helper layers</tspan><tspan x="1269.0" dy="16.5">raw-context can support evidence; WSS cannot</tspan><tspan x="1269.0" dy="16.5">prove memory</tspan></text>
<rect x="1604.0" y="124.0" width="342.0" height="102.6" rx="12" fill="#faf5ff" stroke="#8b63b6" stroke-width="2"/>
<text text-anchor="middle" font-family="Segoe UI, Inter, Arial, sans-serif" font-size="14" font-weight="500" fill="#1f2933" x="1775.0" y="172.8"><tspan x="1775.0" dy="0.0">Mutation review queue</tspan><tspan x="1775.0" dy="16.5">human-gated canonical create/edit/delete bridge</tspan></text>
<rect x="626.0" y="766.7" width="780.0" height="83.8" rx="12" fill="#fff7e6" stroke="#b7a26a" stroke-width="2"/>
<text text-anchor="middle" font-family="Segoe UI, Inter, Arial, sans-serif" font-size="14" font-weight="500" fill="#1f2933" x="1016.0" y="806.0"><tspan x="1016.0" dy="0.0">Read-time effect</tspan><tspan x="1016.0" dy="16.5">runtime can inspect original wording and current-vs-superseded reviewed truth without rewriting history</tspan></text>
<polygon points="257.0,333.5 262.3,344.3 251.7,344.3" fill="#d6b656"/>
<polygon points="763.0,497.0 768.3,507.8 757.7,507.8" fill="#6a9b58"/>
<polygon points="1219.3,333.5 1224.6,344.3 1214.1,344.3" fill="#4d7fb3"/>
<polygon points="1269.0,478.2 1274.3,488.9 1263.7,488.9" fill="#4d7fb3"/>
<polygon points="1946.0,175.3 1956.8,170.1 1956.8,180.6" fill="#6a9b58"/>
<polygon points="1440.0,165.9 1450.8,160.6 1450.8,171.1" fill="#6a9b58"/>
<polygon points="1269.0,249.8 1263.7,239.0 1274.3,239.0" fill="#4d7fb3"/>
</svg>
